<svg width="80" height="80" viewBox="0 0 80 80" fill="none" xmlns="http://www.w3.org/2000/svg">
<path d="M17.9274 66.3185L18.289 66.0016L18.2615 65.9264L18.1517 65.9879L18.1036 65.956L18.1677 65.8625L18.7031 65.3907L18.6756 65.3155L20.2728 64.1369L19.957 63.6446L20.6732 64.0686L20.9432 64.3079L21.1331 64.0298L21.1423 63.4941L20.648 62.947L20.87 63.0382L20.5611 62.7533L20.3963 62.7783L20.4764 62.9789L20.4169 62.8627L20.3277 62.8786L20.0028 63.4736L20.0348 63.428L20.4055 62.4478L20.3277 62.4615L20.5176 62.1834L20.7281 61.976L21.0324 61.4266L20.9684 61.5201L20.9798 61.6044L21.2109 61.479L20.4787 62.7761L21.2498 63.2183L21.4077 62.9858L21.6022 62.498L21.744 62.3908L21.728 62.5162L21.9134 62.3589C21.7463 62.2472 21.593 62.1332 21.4557 62.0215C21.3162 61.9076 21.2589 61.7662 21.2818 61.5953L23.9727 61.0186L23.9452 61.0573L23.5494 61.2055L23.5723 61.2875L24.0619 61.2009L24.0253 61.2533L23.8766 61.3559L23.8995 61.438L22.0255 61.7526C22.0506 61.8597 22.1056 61.9418 22.1879 61.9988C22.2703 62.0557 22.3618 62.1173 22.4602 62.1834L23.7278 62.6325L23.8491 62.7715L23.7507 62.9174L23.5242 62.8331L23.4601 62.9265L23.499 63.0884L23.3823 63.1454L23.4006 63.2343L23.316 63.2434L23.2748 63.4189L22.657 63.893L22.6799 63.9751L22.8263 63.8611L22.6433 64.2304L22.0392 64.9165L22.2497 65.1263L21.9912 65.0875L22.2634 65.5411L21.5289 65.2494C21.5038 65.1422 21.4328 65.0488 21.3184 64.9735C21.204 64.896 21.0965 64.8231 20.9981 64.757L20.8723 64.9439C20.799 65.263 20.7441 65.5913 20.7052 65.9287C20.6663 66.266 20.6549 66.6011 20.6755 66.9294L22.0209 67.6998L21.8081 67.4787L22.0369 67.5745C22.2451 67.8959 22.4991 68.1899 22.7966 68.4589C23.0963 68.7279 23.3869 69.006 23.6706 69.2932L23.753 69.2727L23.92 68.5045L24.0939 68.3495L24.3434 67.7637C24.3731 68.1444 24.3434 68.5091 24.2495 68.8579C24.158 69.2066 24.039 69.5599 23.8926 69.9178L23.9178 69.6648L23.7439 69.8198C23.4006 69.4072 23.0231 69.0288 22.6089 68.6823C22.1948 68.3358 21.7509 68.0213 21.2727 67.7386L20.362 67.269L20.2018 66.8815L20.0851 66.9385L20.1652 66.7197L19.7511 66.1703L20.2247 66.4119L20.3643 64.9485L20.4421 64.9348L20.513 64.2942C20.0737 64.5929 19.6344 64.9097 19.1882 65.2448C18.7443 65.5799 18.321 65.9355 17.9229 66.3116L17.9274 66.3185ZM18.7786 65.3838L18.758 65.3132L18.6779 65.3177L18.7054 65.393L18.7786 65.3838ZM20.1835 66.6011L20.1149 66.4871L20.0371 66.5008L20.0989 66.6102L20.1835 66.6011ZM20.3185 66.0837L20.3506 66.0381L20.3277 65.956L20.2178 66.0176L20.2293 66.1019L20.3185 66.0859V66.0837ZM20.3597 65.9081L20.3437 65.8306L20.2339 65.8922L20.2499 65.9697L20.3597 65.9081ZM20.3368 64.0458L20.314 63.9637L20.2362 63.9774L20.2522 64.0549L20.3391 64.0458H20.3368ZM20.33 66.4894L20.3849 66.4096L20.4146 66.1498L20.2362 66.3116L20.2476 66.5122L20.33 66.4917V66.4894ZM20.3757 65.785L20.3643 65.7007L20.243 65.7645L20.2659 65.8466L20.3757 65.785ZM20.3483 66.7812L20.3323 66.7037L20.2476 66.7128L20.2705 66.7949L20.3483 66.7812ZM20.3963 65.6528L20.3689 65.5776L20.2636 65.6323L20.2751 65.7167L20.3963 65.6528ZM20.4329 66.975L20.3643 66.861L20.2865 66.8769L20.3551 66.9909L20.4329 66.9772V66.975ZM20.4009 65.532L20.3895 65.4477L20.3071 65.4682L20.3231 65.5457L20.4009 65.532ZM20.5153 67.1756L20.4032 67.0228L20.3208 67.0433L20.4352 67.1778L20.5153 67.1733V67.1756ZM20.5016 65.1833L20.4856 65.1057L20.4009 65.1149L20.4238 65.1969L20.5016 65.1833ZM20.5428 64.8049L20.5313 64.7205L20.4421 64.7365L20.465 64.8185L20.5428 64.8049ZM20.5634 64.6726L20.5405 64.5906L20.4627 64.6043L20.4787 64.6818L20.5634 64.6726ZM22.4877 67.6907L22.4282 67.6018L22.3939 67.1436L22.2108 67.0206C21.9912 66.8997 21.7692 66.7994 21.5427 66.7242C21.3162 66.649 21.0873 66.551 20.8631 66.4302L20.7876 66.4552L20.8036 66.3891L20.6823 66.3071L20.8151 66.3276L20.8013 66.2615L20.6114 66.1634L20.632 66.1771L20.6663 66.1703L20.5542 66.0745L20.4718 66.0381L20.4856 66.0472L20.5222 66.0518L20.4947 66.0039L20.9134 66.2273L20.9501 66.1748L20.934 66.1543L20.9089 66.1475C21.188 66.0449 21.4512 65.915 21.696 65.7554C21.9431 65.5958 22.1719 65.4249 22.3893 65.2402L22.3962 65.2744L22.5243 65.2152L22.5106 65.3223L22.5426 65.3041L22.5586 65.3816L22.6318 65.3633C22.3664 65.4933 22.1262 65.6597 21.9088 65.8625C21.6937 66.0654 21.4283 66.2159 21.1125 66.3116L21.1926 66.3663C21.3894 66.4735 21.5839 66.5669 21.7784 66.649C21.9706 66.7311 22.1605 66.8336 22.3458 66.959L22.3138 67.0046L22.3939 67.0593H22.4236C22.4053 66.943 22.3916 66.82 22.3847 66.69C22.3778 66.5601 22.3847 66.4393 22.4007 66.3276L22.4213 66.3413L22.4739 66.396L22.4968 66.3618L22.4854 66.3344L22.5266 66.8268L22.5655 66.8131V66.437L22.5632 67.1505L22.6547 67.2325L22.5678 67.2029V67.7067L22.5472 67.652L22.4945 67.6839L22.4877 67.6907ZM20.6503 64.1119L20.5817 64.0093L20.5016 64.0139L20.5679 64.1347L20.6503 64.1142V64.1119ZM20.6183 66.2865L20.5954 66.2045L20.5176 66.2182L20.529 66.3025L20.6183 66.2865ZM20.6183 65.3291L20.5954 65.2471L20.5176 65.2608L20.5336 65.3383L20.6183 65.3291ZM20.6206 64.586L20.6023 64.4971L20.5199 64.5176L20.5405 64.5883L20.6206 64.5837V64.586ZM20.6274 65.1992L20.6114 65.1217L20.5336 65.1354L20.5496 65.2129L20.6274 65.1992ZM20.6434 65.0738L20.632 64.9895L20.5496 65.01L20.5656 65.0875L20.6434 65.0738ZM20.6595 66.1087L20.6434 66.0312L20.5656 66.0449L20.5817 66.1224L20.6595 66.1087ZM20.6068 66.0837L20.5908 66.0631L20.5656 66.0563L20.5725 66.0905L20.6068 66.0837ZM20.6755 65.9834L20.664 65.899L20.5748 65.915L20.5977 65.997L20.6755 65.9834ZM20.6961 65.8512L20.6686 65.7737L20.5931 65.7828L20.6091 65.8603L20.6961 65.8512ZM20.7441 64.7228L20.7167 64.6476L20.6434 64.6567L20.6595 64.7342L20.7441 64.7251V64.7228ZM20.8906 67.1436L20.7258 66.9658L20.648 66.9795L20.8128 67.1573L20.8906 67.1414V67.1436ZM20.8814 67.4765L20.7601 67.3374L20.6869 67.3465L20.8036 67.4924L20.8814 67.4787V67.4765ZM20.7373 66.1976L20.7304 66.1634L20.6961 66.1703L20.7075 66.1976H20.7373ZM20.8814 67.2736L20.8128 67.1596L20.735 67.1733L20.7967 67.2827L20.8814 67.2736ZM20.8173 66.3686H20.8471L20.8151 66.3276L20.7373 66.3139L20.7853 66.3754L20.8196 66.3686H20.8173ZM20.8402 65.0009L20.8768 64.9485L20.8539 64.8664L20.7395 64.9348L20.7556 65.0123L20.8425 65.0032L20.8402 65.0009ZM20.886 64.8185L20.8539 64.6612L20.7716 64.6818L20.886 64.8162V64.8185ZM20.918 64.5701L20.902 64.4926L20.8173 64.5017L20.8402 64.5837L20.918 64.5701ZM20.87 66.3367L20.8631 66.3025L20.8288 66.3093L20.8356 66.3435L20.87 66.3367ZM20.9272 66.4233L20.9363 66.4096L20.9295 66.3754L20.8585 66.3937L20.8654 66.4279L20.9295 66.421L20.9272 66.4233ZM20.9317 66.3299L20.9043 66.282L20.87 66.2888L20.902 66.3299H20.9317ZM20.9706 66.4051L20.9638 66.3709L20.9295 66.3777L20.9363 66.4119L20.9706 66.4051ZM20.9821 66.1703L20.9752 66.1361L20.9409 66.1429L20.9523 66.1703H20.9821ZM20.9958 66.2387L20.989 66.2045L20.9546 66.2113L20.9661 66.2387H20.9958ZM21.0347 66.2273L21.0233 66.1999H20.9935L21.0095 66.2204L21.0347 66.2273ZM21.1011 66.4165L21.0507 66.3732L21.0256 66.3663L21.0736 66.4279L21.1011 66.4165ZM21.2727 67.538L21.1079 67.3602L21.0301 67.3739L21.1949 67.5517L21.2727 67.538ZM21.2773 64.8801L21.1606 64.7342L21.0828 64.7479L21.1995 64.8938L21.2773 64.8801ZM21.8378 64.9097L21.9317 64.7707L22.0827 64.1278L21.3619 63.9136L21.2978 64.007L21.0919 64.4105L21.8333 64.9097H21.8378ZM21.2246 63.4804L21.2132 63.3961L21.1239 63.4121L21.1468 63.4941L21.2246 63.4804ZM21.1628 66.2364L21.1583 66.2136H21.1285L21.1354 66.2478L21.1628 66.2364ZM21.5015 67.8389L21.2406 67.5859L21.1583 67.6064L21.4283 67.8457L21.5038 67.8366L21.5015 67.8389ZM21.3551 64.6635L21.2429 64.5108L21.1606 64.5313L21.2773 64.6772L21.3551 64.6612V64.6635ZM21.2773 63.7221L21.3413 63.6286L21.2406 63.5602L21.1674 63.5693L21.2017 63.738L21.2795 63.7221H21.2773ZM21.4008 63.3232L21.5587 63.0906L21.6823 62.4866L21.4786 62.6872L21.2521 63.2229L21.4008 63.3232ZM21.3024 66.1589L21.2956 66.1247L21.2681 66.1361L21.2727 66.1589H21.3024ZM21.3779 61.8757L21.4145 61.8232L21.3985 61.7457L21.2773 61.8096L21.3001 61.8916L21.3779 61.8779V61.8757ZM21.5198 67.7067L21.4031 67.5608L21.3253 67.5745L21.4351 67.7158L21.5198 67.7067ZM21.4306 61.6979L21.4077 61.6158L21.3299 61.6317L21.3459 61.7093L21.4328 61.7001L21.4306 61.6979ZM21.5564 65.0032L21.4397 64.8573L21.3619 64.871L21.4786 65.0168L21.5564 65.0032ZM22.1605 64.1142L22.0484 63.9614L21.5198 63.6833L21.3619 63.9158L21.5564 64.048L22.1605 64.1164V64.1142ZM21.4901 65.9264L21.4786 65.899H21.4489L21.4557 65.9332L21.4901 65.9264ZM21.5427 65.8945L21.5358 65.8603L21.5015 65.8671L21.5129 65.8945H21.5427ZM21.6045 61.748L21.6891 61.7389L21.5724 61.593L21.5084 61.6865L21.5244 61.764L21.6022 61.7503L21.6045 61.748ZM21.5564 66.0495L21.5495 66.0153L21.5152 66.0221L21.5267 66.0495H21.5564ZM21.6319 67.6474L21.6159 67.5699L21.5312 67.579L21.5541 67.6611L21.6319 67.6474ZM21.7944 62.2221L21.6777 62.0763L21.593 62.0854L21.7143 62.2244L21.7944 62.2199V62.2221ZM22.371 63.9067L23.1238 63.118L22.8103 62.8399L22.1582 62.5253L21.9957 62.7647L21.6045 63.4577L22.2932 63.9204L22.371 63.9067ZM21.7143 62.0215L21.6914 61.9395L21.6136 61.9532L21.7143 62.0215ZM21.744 63.1362L21.8035 63.0496L21.7875 62.9721L21.6502 63.0724L21.6617 63.1568L21.744 63.1362ZM21.7692 62.6803L21.8012 62.6325L21.7852 62.555L21.6685 62.6119L21.6868 62.7008L21.7692 62.6803ZM21.7692 65.0123L21.7532 64.9348L21.6685 64.9439L21.6914 65.0282L21.7692 65.0146V65.0123ZM21.7761 61.9304L21.7532 61.8483L21.6754 61.862L21.6914 61.9395L21.7761 61.9304ZM22.0827 62.001L21.998 61.8073L21.9202 61.821L21.8516 61.707L21.6937 61.7366L22.0072 62.0147L22.085 62.001H22.0827ZM21.7303 65.9537L21.7257 65.9309H21.696L21.7074 65.9583L21.7303 65.9537ZM22.2978 66.9841H22.3275L22.085 66.7926L21.7234 66.6444L21.8516 66.7607C21.9362 66.7789 22.014 66.8222 22.085 66.8883C22.1536 66.9544 22.2268 66.9864 22.3 66.9841H22.2978ZM21.8539 65.2038L21.831 65.1217L21.7532 65.1354L21.7692 65.2129L21.8539 65.2038ZM21.9728 62.2746L21.9065 62.1538L21.8241 62.1743L21.8859 62.2837L21.9706 62.2746H21.9728ZM21.9317 61.4813L21.9111 61.4106L21.831 61.4152L21.8493 61.5041L21.9317 61.4836V61.4813ZM22.0186 62.0922L21.9545 61.9828L21.8699 61.9919L21.9385 62.1059L22.0163 62.0899L22.0186 62.0922ZM22.0117 61.6819L21.9957 61.6044L21.9088 61.6135L21.9317 61.6956L22.0095 61.6819H22.0117ZM22.0049 61.4745L21.9889 61.397L21.9111 61.4106L22.0049 61.4745ZM22.2085 68.1717L21.998 67.962L21.9134 67.9711L22.1307 68.1854L22.2085 68.1717ZM22.0095 64.757L21.9889 64.6863L21.9156 64.6954L21.9317 64.7729L22.0095 64.7593V64.757ZM21.9591 65.6141V65.5844L21.9248 65.5913L21.9362 65.6186L21.9591 65.6141ZM21.9866 65.7486L21.9751 65.7212H21.9454L21.9523 65.7554L21.9866 65.7486ZM22.0186 65.5867L22.0278 65.5731L22.014 65.5343L21.9774 65.5594L21.982 65.5822L22.0186 65.5867ZM22.0918 61.4676L22.0735 61.3787L21.9912 61.3992L22.0918 61.4676ZM22.0918 61.6705L22.0804 61.5862L21.998 61.6067L22.0918 61.6705ZM22.1056 62.2883L22.0895 62.2107L22.0117 62.2244L22.0232 62.3088L22.1056 62.2883ZM22.1696 62.1948L22.1536 62.1173L22.0758 62.131L22.0918 62.2085L22.1696 62.1948ZM22.1765 61.4448L22.1605 61.3673L22.0758 61.3764L22.1765 61.4448ZM22.2314 61.6842L22.1582 61.577L22.085 61.5862L22.2337 61.6865L22.2314 61.6842ZM22.1879 62.4866L22.1719 62.4091L22.0941 62.4227L22.1147 62.4934L22.1879 62.4843V62.4866ZM22.2062 64.2692L22.2337 64.2304L22.2108 64.1483L22.1056 64.2031L22.117 64.2874L22.2062 64.2714V64.2692ZM22.3229 68.1102L22.2131 67.9688L22.1284 67.978L22.2451 68.1238L22.3229 68.1102ZM22.2566 61.4289L22.236 61.3582L22.1605 61.3673L22.2543 61.4311L22.2566 61.4289ZM23.5288 67.2599L23.5517 67.2257L23.975 66.747L23.9635 66.69L23.8812 66.7402L24.0207 66.535C24.2244 66.3299 24.4189 66.0951 24.5996 65.8284C24.7804 65.5617 24.9589 65.2972 25.1328 65.0419L25.1648 64.8504C24.7255 65.1035 24.277 65.3269 23.8217 65.5275C23.3663 65.7258 22.8881 65.9173 22.3916 66.0973L22.3801 65.9834L22.1856 66.0654L22.7234 65.8078L22.7073 65.7577L22.3641 65.874C22.8378 65.7167 23.3 65.5343 23.7484 65.3269C24.1969 65.1194 24.6431 64.912 25.087 64.7L24.8948 64.5222L23.3595 63.583L23.4212 63.6241L23.6546 63.6856C23.6478 63.6104 23.6066 63.5466 23.5356 63.4987C23.4624 63.4508 24.0299 63.7996 25.2334 64.545L25.3044 64.6407L25.4485 64.4287L25.4966 64.3148L25.7117 64.0435L25.8078 63.8566L25.7849 63.8885L25.778 63.9409L25.9565 63.7517C25.8078 63.6514 25.6453 63.5511 25.4714 63.4531C25.2952 63.3551 25.1785 63.2137 25.119 63.0314L25.6087 63.2639L24.936 62.7624L25.2472 62.9128L24.8788 62.5572L26.1395 63.4075C26.27 63.3984 26.3706 63.3414 26.4416 63.2388C26.5125 63.1362 26.588 63.0223 26.6704 62.9037L26.8717 62.4775L26.8489 62.5116L26.8557 62.5732L26.9587 62.4775L26.9084 62.7533L26.9656 62.7419L26.8923 62.8467L26.81 62.8969L26.4576 63.6172L27.6886 64.659L27.4712 64.5609L27.4827 64.6179L27.3889 64.5541V64.5062L26.8786 64.3056L27.1349 64.5359L26.2448 63.9364L25.5675 64.8049C25.9428 65.026 26.286 65.2653 26.5972 65.5275C26.9084 65.7896 27.215 66.07 27.5147 66.3686L27.4918 66.4028L27.2287 66.225L27.1898 66.1521L26.945 66.0928C26.7665 65.9013 26.572 65.7281 26.3615 65.5685C26.151 65.4112 25.9473 65.2494 25.7506 65.0852L25.6934 65.0966C25.6934 65.2311 25.7322 65.3428 25.81 65.4317C25.8878 65.5206 25.9267 65.6323 25.9267 65.7668L26.1647 68.2675L26.1304 68.2447L26.1235 68.1831L26.0434 68.2447L25.9313 68.2652L25.8535 68.8123L25.8764 68.7781L25.9039 67.8959L25.8306 67.9324L25.8421 67.9871L25.7666 67.4331L25.7048 67.4514L25.5423 65.4454L25.5995 65.434L25.5561 65.0943L25.6133 65.083L25.4966 64.9074L23.6981 67.3534L23.6043 67.2895L23.5928 67.2325L23.5356 67.2439L23.5288 67.2599ZM22.3 64.1301L22.2772 64.048L22.1994 64.0617L22.2108 64.1461L22.3 64.1301ZM22.355 62.4547L22.2863 62.3407L22.2085 62.3566L22.2749 62.4775L22.3573 62.4569L22.355 62.4547ZM22.4053 68.3039L22.3412 68.1945L22.2566 68.2036L22.3252 68.3176L22.403 68.3039H22.4053ZM22.6616 62.5253L22.3481 62.2472L22.2703 62.2632L22.5838 62.5413L22.6616 62.5276V62.5253ZM22.4053 68.101L22.3824 68.019L22.3046 68.0327L22.4053 68.101ZM22.4053 66.6216L22.3984 66.5874L22.3641 66.5943L22.3756 66.6216H22.4053ZM22.4145 66.7242V66.6946L22.3801 66.7014L22.3962 66.7219H22.4145V66.7242ZM22.4282 66.7926L22.4236 66.7698L22.387 66.7652L22.4053 66.7972L22.4282 66.7926ZM22.4282 66.9203L22.4213 66.8861L22.387 66.8929L22.3984 66.9203H22.4282ZM22.4923 64.2646L22.4694 64.1825L22.3916 64.1962L22.403 64.2806L22.4923 64.2646ZM22.4259 66.8405L22.419 66.8063L22.3916 66.8177V66.8473L22.4259 66.8405ZM22.4396 66.9932L22.4328 66.959L22.3984 66.9658L22.4053 67L22.4396 66.9932ZM22.4396 67.0342L22.4236 67.0137L22.3984 67.0069L22.4053 67.0411L22.4396 67.0342ZM22.4648 67.5927L22.4579 67.5585L22.4236 67.5654L22.4351 67.5927H22.4648ZM22.4717 65.3816L22.4854 65.3611L22.4739 65.3337L22.4305 65.3542L22.4419 65.3816H22.4717ZM22.4968 67.6337L22.4854 67.6064H22.4556L22.4671 67.6337H22.4968ZM23.348 62.7898L23.4899 62.6826L23.4967 62.8901L23.8537 62.7829L23.5379 62.5116L22.4648 62.1948C22.4648 62.3293 22.5266 62.4296 22.6524 62.4911C22.7783 62.5527 22.8904 62.6165 22.9888 62.6849L23.348 62.792V62.7898ZM22.5449 66.0016V65.9446L22.4854 65.9606L22.4968 66.0176L22.5472 66.0016H22.5449ZM22.6227 65.9583L22.6158 65.8967L22.5609 65.9173L22.57 65.9628L22.6227 65.9583ZM22.6822 65.9401L22.6753 65.8785L22.6158 65.8945L22.6822 65.9401ZM22.76 61.6386L22.7439 61.5611L22.6662 61.5748L22.6776 61.6591L22.76 61.6386ZM22.7371 65.9173L22.76 65.8831L22.7554 65.8306L22.6776 65.874L22.7394 65.915L22.7371 65.9173ZM22.7737 65.8056L22.7668 65.744L22.705 65.7622L22.7211 65.8124L22.7737 65.8078V65.8056ZM22.8469 61.6272L22.824 61.5451L22.7462 61.5588L22.8469 61.6272ZM22.9041 68.8442L22.8378 68.7416H22.7577L22.8263 68.8601L22.9041 68.8464V68.8442ZM22.824 65.8785L22.8012 65.8238L22.7554 65.8329L22.76 65.8853L22.824 65.8785ZM22.8515 65.7509V65.6939L22.7691 65.744L22.8515 65.7509ZM22.8698 65.8694L22.9545 65.8192L22.9476 65.7577L22.8034 65.8261L22.8698 65.8717V65.8694ZM22.9201 65.7395L22.9064 65.6734L22.8515 65.6939L22.9178 65.7395H22.9201ZM22.9545 61.3605L22.943 61.2761L22.8606 61.2967L22.8767 61.3742L22.9545 61.3605ZM23.1924 63.02L22.9819 62.8103L22.8973 62.8194L23.11 63.0405L23.1924 63.02ZM22.975 65.7167L22.9705 65.6642L22.9064 65.6711L22.975 65.7167ZM23.0368 63.4668L23.1627 63.2798L23.1444 63.1909L22.9339 63.3984L22.9499 63.4759L23.0345 63.4668H23.0368ZM23.0437 61.3423L23.0162 61.267L22.943 61.2739L23.0437 61.3423ZM23.0139 65.801L23.0071 65.7372L22.9453 65.7554L22.9522 65.817L23.0117 65.7987L23.0139 65.801ZM23.2862 62.8786L23.0757 62.6689L22.9888 62.6781L23.2062 62.8923L23.2839 62.8764L23.2862 62.8786ZM23.1009 61.4585L23.0895 61.3742L23.0071 61.3947L23.0231 61.4722L23.1009 61.4585ZM23.0666 65.7805L23.062 65.7281L23.0048 65.7372L23.0643 65.7782L23.0666 65.7805ZM23.1078 65.6619L23.0963 65.605L23.0391 65.6141L23.046 65.6779L23.1078 65.6597V65.6619ZM23.1535 69.0106L23.1261 68.9354L23.0528 68.9422L23.0689 69.0197L23.1535 69.0106ZM23.1238 65.7691L23.1078 65.7189L23.062 65.7281L23.1215 65.7691H23.1238ZM23.2382 61.4722L23.3434 61.4175L23.332 61.3331L23.0895 61.3719L23.2382 61.4722ZM23.1581 65.646L23.1535 65.5936L23.0963 65.605L23.1581 65.646ZM23.2359 69.2112L23.2176 69.1223L23.1352 69.1428L23.1512 69.2203L23.2359 69.2112ZM23.2039 65.7258L23.1924 65.6688L23.1352 65.6802L23.1421 65.7417L23.2039 65.7235V65.7258ZM23.2473 65.7075L23.4693 65.5958L23.4647 65.5434L23.1924 65.6688L23.2473 65.7053V65.7075ZM23.4281 61.3992L23.4121 61.3217L23.3343 61.3354L23.3457 61.4198L23.4281 61.3992ZM23.515 61.3901L23.4876 61.3149L23.4121 61.324L23.5128 61.3924L23.515 61.3901ZM23.5265 65.5867L23.5494 65.5525L23.5425 65.491L23.467 65.5457L23.4716 65.5981L23.5288 65.5867H23.5265ZM23.602 65.532L23.5974 65.4796L23.5402 65.491L23.5471 65.5525L23.602 65.532ZM23.6889 61.4494L23.6706 61.3605L23.5883 61.381L23.6089 61.4517L23.6889 61.4471V61.4494ZM23.6592 65.5206L23.6432 65.4705L23.5974 65.4796L23.6569 65.5206H23.6592ZM23.7736 61.4289L23.7576 61.3514L23.6729 61.3605L23.7736 61.4289ZM23.7393 65.5366V65.4796L23.6775 65.4978L23.6935 65.5457L23.7393 65.5366ZM23.8926 69.3069L23.8766 69.2294L23.7896 69.2385L23.8125 69.3206L23.8903 69.3069H23.8926ZM23.8766 65.4636L23.872 65.4112L23.8148 65.4226L23.8262 65.4796L23.8766 65.4636ZM24.0184 65.4135L24.0001 65.3519L23.872 65.4112H24.0184V65.4135ZM23.9933 69.5782L23.9727 69.5075H23.8926L23.9155 69.5941L23.9933 69.5782ZM24.039 68.9901L24.0116 68.9148L23.9384 68.924L23.9498 69.0083L24.039 68.9923V68.9901ZM24.039 68.8738L24.0276 68.7895L23.9452 68.81L23.9658 68.8806L24.039 68.8715V68.8738ZM24.0596 68.7416L24.0871 68.7028L24.0756 68.6185L23.9589 68.6755L23.9818 68.7576L24.0596 68.7439V68.7416ZM24.0207 65.2516L24.0161 65.1992L23.9589 65.2083L23.9658 65.2699L24.0207 65.2494V65.2516ZM24.0665 66.6171L24.0894 66.5829L24.0825 66.5213L23.9978 66.5715L24.0047 66.633L24.0665 66.6148V66.6171ZM24.2106 65.3314L24.1992 65.2744L23.9978 65.3519L24.2084 65.3291L24.2106 65.3314ZM24.1054 68.5706L24.1374 68.525L24.1145 68.443L24.0047 68.5045L24.0207 68.582L24.1054 68.5729V68.5706ZM24.0756 65.2402L24.0642 65.1833L24.0139 65.1992L24.0756 65.2402ZM24.1328 69.0516L24.1603 69.0129L24.1397 68.9422L24.0665 68.9513L24.1328 69.0539V69.0516ZM24.1763 68.8875L24.2084 68.8396L24.1878 68.7689L24.0756 68.8191L24.0939 68.908L24.1763 68.8875ZM24.1786 68.3472L24.2152 68.2948L24.1992 68.2173L24.0848 68.2857L24.1008 68.3632L24.1786 68.3495V68.3472ZM24.1603 65.2015L24.142 65.1399L24.0848 65.1513L24.0962 65.2083L24.1603 65.2015ZM24.2038 63.9044L24.158 63.8247L24.1077 63.8406L24.1534 63.9204L24.2038 63.9044ZM24.2038 65.181L24.6934 64.9507L24.6866 64.8869L24.142 65.1399L24.2038 65.181ZM24.2541 68.6686L24.2312 68.5866L24.1512 68.6003L24.1672 68.6778L24.2518 68.6664L24.2541 68.6686ZM24.2976 65.2448L24.3045 65.1901L24.245 65.2083L24.2564 65.2653L24.2999 65.2448H24.2976ZM24.4715 65.206L24.4669 65.1536L24.4097 65.165L24.4211 65.222L24.4715 65.206ZM24.5218 65.1331L24.5173 65.0807L24.46 65.0921L24.4669 65.1536L24.5218 65.1331ZM24.6042 65.1399L24.5996 65.0898L24.5424 65.1012L24.5539 65.1582L24.6042 65.1422V65.1399ZM24.7484 64.9279L24.8307 64.8778L24.8147 64.8276L24.6866 64.8869L24.6934 64.9507L24.7484 64.9279ZM24.8765 64.8687L24.8994 64.8345V64.7775L24.817 64.8276L24.833 64.8778L24.8788 64.8687H24.8765ZM24.9932 64.8983L25.0206 64.8573L25.0161 64.8071L24.9337 64.8573L24.9451 64.912L24.9955 64.8983H24.9932ZM25.0756 64.8482L25.1648 64.8026L25.1465 64.7433L25.0138 64.8094L25.0184 64.8596L25.0756 64.8504V64.8482ZM25.2083 64.7821V64.7342L25.1488 64.741L25.1671 64.8003L25.2106 64.7798L25.2083 64.7821ZM25.5263 64.3877L25.5149 64.3307L25.4714 64.3489L25.4645 64.4037L25.5263 64.3854V64.3877ZM25.6224 65.6802L25.611 65.6232L25.5538 65.6323L25.5698 65.6825L25.6224 65.6779V65.6802ZM25.627 65.3246V65.2676L25.5652 65.2858L25.5767 65.3428L25.627 65.3269V65.3246ZM25.8718 63.5443L25.6453 63.3437L25.5812 63.3505L25.8146 63.5557L25.8718 63.5443ZM25.6705 65.8078V65.7509L25.6041 65.7622L25.6224 65.8238L25.6728 65.8078H25.6705ZM25.7071 67.3602V67.3123L25.6453 67.3192L25.6636 67.3784L25.7071 67.3579V67.3602ZM25.7208 66.5578L25.7025 66.4985L25.6522 66.5122L25.6567 66.5646L25.7208 66.5578ZM25.7185 67.2143L25.7071 67.1573L25.6567 67.1733L25.6613 67.2234L25.7185 67.212V67.2143ZM25.7254 66.8701V66.8131L25.6636 66.8313L25.6796 66.8815L25.7254 66.8724V66.8701ZM25.7345 67.1186L25.73 67.0661L25.6728 67.0775L25.6796 67.1391L25.7345 67.1186ZM25.7368 66.6649L25.7254 66.608L25.675 66.6239L25.6796 66.6763L25.7368 66.6649ZM25.9794 63.713L25.7528 63.5124L25.6956 63.5238L25.9176 63.7312L25.9794 63.7152V63.713ZM25.7643 65.8694L25.7574 65.8078L25.7025 65.8284L25.7071 65.8808L25.7643 65.8694ZM25.7643 64.0298L25.7528 63.9728L25.7094 63.9933V64.0412L25.7643 64.0298ZM25.7986 66.2979L25.7872 66.241L25.7231 66.2478L25.7414 66.3093L25.7986 66.2979ZM25.7986 66.0951L25.7803 66.0335L25.73 66.0495L25.7345 66.1019L25.7986 66.0951ZM25.8215 66.4096L25.8032 66.3504L25.7528 66.3663L25.7574 66.4188L25.8215 66.4119V66.4096ZM25.8329 67.1322L25.8146 67.073L25.7574 67.0821L25.7689 67.1391L25.8306 67.1322H25.8329ZM25.8489 67.5015L25.8718 67.4673L25.8306 67.1801L25.762 67.2394L25.7963 67.522L25.8512 67.5015H25.8489ZM25.8329 66.5236L25.8261 66.4621L25.7711 66.4826V66.5396L25.8306 66.5213L25.8329 66.5236ZM25.8741 67.6634L25.8535 67.5631L25.7803 67.5995L25.794 67.7249L25.8764 67.6634H25.8741ZM25.8444 66.6376L25.8329 66.5806L25.7826 66.5966L25.7872 66.649L25.8444 66.6376ZM25.8535 65.8694L25.8444 65.8238L25.7917 65.8284L25.7986 65.8899L25.8535 65.8694ZM25.8535 67.766L25.8467 67.7044L25.7917 67.7249L25.7963 67.7751L25.8535 67.7637V67.766ZM25.865 66.7493L25.8467 66.6877L25.7963 66.7037L25.8009 66.7561L25.865 66.7493ZM25.8695 66.3937L25.865 66.3413L25.8032 66.3481L25.8695 66.3937ZM25.8741 66.8519L25.8627 66.7949L25.8192 66.8154L25.8123 66.8678L25.8741 66.8496V66.8519ZM25.8901 67.8412L25.8856 67.7888L25.8284 67.8001L25.8352 67.8617L25.8901 67.8389V67.8412ZM25.9061 66.9339L25.8993 66.8724L25.8444 66.8929V66.9499L25.9039 66.9316L25.9061 66.9339ZM25.913 67.1414L25.8993 67.0753L25.8512 67.1026V67.1505L25.9107 67.1436L25.913 67.1414ZM25.913 67.3442L25.9016 67.2873L25.8512 67.3032L25.8558 67.3534L25.913 67.3442ZM25.9222 67.0411V67H25.8604L25.8787 67.0616L25.9222 67.0411ZM25.9222 67.4582L25.9153 67.3967L25.8604 67.4172L25.865 67.4673L25.9222 67.4582ZM25.9267 67.2485L25.9222 67.1961L25.865 67.2075L25.8718 67.269L25.9267 67.2485ZM25.9542 66.861L25.9428 66.804L25.8924 66.82L25.897 66.8724L25.9542 66.8633V66.861ZM26.0206 67.7181L26.0389 67.6907L26.0091 67.4582L25.9336 67.5129L25.9382 67.7682L26.0228 67.7181H26.0206ZM26.0526 68.1466L26.0984 67.8184L25.9977 67.75L25.9359 67.7682L25.9908 68.1626L26.0526 68.1466ZM26.0045 67.4081L25.9931 67.3511L25.9359 67.3625L25.9473 67.4172L26.0045 67.4081ZM26.0114 67.0639L26.0045 67.0023L25.9382 67.0137L25.9611 67.0684L26.0137 67.0639H26.0114ZM26.032 67.1642L26.0206 67.1072L25.9702 67.1231V67.1801L26.0297 67.1619L26.032 67.1642ZM26.0434 67.2781L26.032 67.2212L25.9817 67.2371L25.9862 67.2873L26.0434 67.2759V67.2781ZM26.2608 63.9022L26.2562 63.852L26.199 63.8611L26.2059 63.9227L26.2608 63.9022ZM26.2791 63.469L26.3066 63.4303L26.302 63.3779L26.2173 63.428L26.2334 63.4782L26.2791 63.469ZM26.707 62.9835L26.7734 62.8832L26.7619 62.8262L26.6384 62.9356L26.6498 62.9926L26.707 62.9812V62.9835ZM26.9678 64.2806L26.7413 64.08L26.691 64.0959L26.9175 64.2965L26.9678 64.2806Z" fill="#D80010"/>
<path d="M36.5458 74.2965L36.635 73.8087L36.5389 73.7905L36.5687 73.6332L36.6991 73.4622L36.7037 73.1704L34.4842 72.767L32.5827 72.4866L32.3242 72.4068L32.2555 72.4273L32.3127 72.4706L32.2144 72.4205L32.2212 72.3886L32.7086 72.4456L32.2738 72.3339L33.9671 72.5755L34.0014 72.3863L33.9305 72.1378L34.0838 71.6682L34.0403 71.2283L34.1021 71.2078L34.1181 71.479L34.2554 70.9981L34.2165 70.2572L34.2027 70.3279L34.2554 70.3621L34.3995 69.9312L34.141 69.8104L34.022 69.8218L33.061 69.5505L33.5575 69.6417L33.5689 69.5779L34.2783 69.6326C34.9899 69.8104 35.706 69.9768 36.4222 70.1273C37.1407 70.28 37.85 70.4738 38.5502 70.7086L38.1086 70.6288L37.7928 70.5467L37.7333 70.5604L37.6532 71.3126L37.159 72.7875L37.175 73.0177L37.0995 73.1089C37.2803 73.1408 37.461 73.175 37.6395 73.2069C37.818 73.2388 37.9782 73.2913 38.12 73.3596L37.0744 73.2343L36.8135 74.3444L36.6533 74.3148L36.6465 74.0777L36.5412 74.2943L36.5458 74.2965ZM32.4088 69.6258L32.4409 69.4525L32.9328 68.2148L32.8596 68.2011L32.8665 68.1692L32.9832 68.1578L33.1273 67.736L32.8779 67.6905L32.8848 67.6585C33.1594 67.6654 33.4431 67.695 33.7337 67.7474C34.0243 67.7999 34.3172 67.8523 34.61 67.907L35.6397 68.2489L35.7427 68.0894L35.7038 68.2945L35.5894 68.5179L35.6168 68.5476L35.7129 68.4746L35.4795 68.7094L35.761 68.8507L35.6809 68.8371L35.4315 68.7596L35.3216 68.951L35.3102 68.8279L35.2095 68.9305L35.2255 68.8439L35.2873 68.7322L35.2141 68.7185L35.1752 68.7436L35.2027 68.7732L34.9784 68.7322L34.1867 68.5316L34.1478 68.5567L33.2143 68.3219C33.0953 68.5453 32.9672 68.7641 32.8253 68.9761C32.6834 69.1904 32.569 69.4092 32.4775 69.6372L32.4043 69.6235L32.4088 69.6258ZM34.6581 67.6472L33.3607 67.3212L32.9763 67.3417L33.0152 67.3485H33.1983L33.2143 67.2619L33.109 67.2437L34.3286 67.4078L34.34 67.344L34.3149 67.2505L34.4293 66.847C34.2897 66.7627 34.1341 66.7103 33.9625 66.6897C33.7886 66.6692 33.617 66.6442 33.4477 66.6122L33.228 66.5963L32.5896 66.423L34.4956 66.6806L34.6741 66.1107L34.681 66.2589L34.8571 65.9238L34.8297 66.0743L34.7931 66.0993L34.8205 66.3159L34.8892 66.1746L34.8549 66.3547L34.745 66.7262C34.9899 66.7718 35.2164 66.822 35.42 66.8812C35.6237 66.9405 35.8319 67.0089 36.0447 67.0841L36.452 67.1251L36.4451 67.157L36.4085 67.1753L36.4749 67.2209L35.4086 67.0271L35.1592 66.9496L35.1203 66.9747L35.3262 67.0773L35.2873 67.0704C35.1981 67.0112 35.1134 66.9633 35.031 66.9291C34.9487 66.8949 34.8457 66.8744 34.7199 66.8675L34.5025 67.4716L35.5848 67.7588L35.5413 67.7748L35.6077 67.8204L35.4223 67.7862L35.3949 67.7497L34.6604 67.6494L34.6581 67.6472ZM32.855 68.8599L32.8665 68.796L32.8299 68.7641L32.7727 68.8439L32.8093 68.8758L32.8527 68.8599H32.855ZM32.9077 68.7482L32.926 68.6524L32.8962 68.6319L32.8367 68.7345L32.871 68.7732L32.9099 68.7482H32.9077ZM32.9557 67.6745L32.9214 67.6357L32.8825 67.6608L32.9099 67.6973L32.9557 67.6722V67.6745ZM32.9649 68.6137L32.974 68.559L32.9466 68.5225L32.8985 68.6023L32.926 68.6387L32.9649 68.6137ZM33.0312 68.4792L33.0381 68.4473L33.0038 68.4085L32.9603 68.4655L32.9877 68.502L33.0335 68.4769L33.0312 68.4792ZM33.0724 68.0301L33.0449 67.9936L33.0061 68.0187L33.0335 68.0552L33.0724 68.0301ZM33.1342 67.9184L33.1502 67.8318L33.1159 67.793L33.061 67.9047L33.0861 67.9412L33.1319 67.9161L33.1342 67.9184ZM33.196 67.8067L33.1594 67.7771L33.1159 67.793L33.1502 67.8318L33.196 67.8067ZM33.4362 67.3052L33.2166 67.2414L33.1799 67.2596L33.3996 67.3326L33.4385 67.3075L33.4362 67.3052ZM34.1112 68.3652L34.1753 68.0187L33.3127 67.8044L33.1983 68.1988L34.1112 68.3652ZM33.6467 67.8318L33.3561 67.7452L33.3172 67.7702L33.601 67.8546L33.6467 67.8295V67.8318ZM33.7222 69.6372L33.6147 69.5847L33.5598 69.6075L33.6513 69.6577L33.7222 69.6372ZM33.649 68.4017L33.6216 68.372L33.5781 68.388L33.6124 68.4267L33.6513 68.4017H33.649ZM34.0014 67.9275L33.6788 67.8363L33.6399 67.8614L33.9556 67.9435L33.9991 67.9275H34.0014ZM33.9556 68.3994L33.7062 68.3219L33.6605 68.347L33.9099 68.4245L33.9556 68.3994ZM34.0517 67.8705L33.9465 67.8181L33.9076 67.8432L34.006 67.8933L34.0517 67.8683V67.8705ZM34.3103 69.7101L33.9968 69.6212L33.935 69.6417L34.2577 69.7329L34.3103 69.7101ZM34.2394 72.5892L34.1501 72.4433L34.0083 72.58L34.1776 72.6097L34.2394 72.5892ZM34.1867 68.3515L34.2348 68.0825L34.2073 68.0529L34.1204 68.3059L34.1867 68.3515ZM34.3423 70.4806L34.3606 70.378L34.3172 70.3461L34.2302 70.4601L34.2874 70.5034L34.34 70.4806H34.3423ZM34.3355 71.1075L34.2851 71.0664L34.2325 71.0892L34.2737 71.1303L34.3355 71.1098V71.1075ZM34.6375 68.5544L34.276 68.4564L34.2371 68.4815L34.594 68.5704L34.6375 68.5544ZM35.3399 68.6501L35.5527 68.2968L35.4406 68.2763L34.8205 68.1874L34.3126 68.0711L34.292 68.1897L34.308 68.2831L34.2554 68.388L35.3422 68.6501H35.3399ZM36.7815 72.9858C36.8776 72.8901 36.9371 72.7715 36.9622 72.6348C36.9874 72.498 37.0126 72.3635 37.0355 72.2336L36.8753 72.2039C36.8318 72.2609 36.7632 72.2814 36.6694 72.2632C36.5755 72.245 36.4749 72.229 36.3696 72.2085L34.9853 71.8597L34.5574 71.7503L34.2897 72.6302L35.1546 72.7875L36.7815 72.9858ZM34.5139 68.5909L34.3423 68.527L34.2966 68.5521L34.475 68.6182L34.5139 68.5932V68.5909ZM34.4224 70.6265L34.4338 70.5627L34.3835 70.5216L34.3172 70.6083L34.3583 70.6493L34.4201 70.6288L34.4224 70.6265ZM34.4293 68.062L34.3949 68.0233L34.3492 68.0483L34.3835 68.0871L34.4293 68.062ZM34.4705 71.0026L34.4933 70.8772L34.4453 70.8271L34.3583 70.9821L34.4087 71.0231L34.4705 71.0026ZM34.475 66.7672L34.4064 66.7308L34.3629 66.7467L34.4384 66.7923L34.4773 66.7672H34.475ZM34.5826 68.0324L34.443 67.9754L34.3972 68.0005L34.5368 68.0506L34.5803 68.0347L34.5826 68.0324ZM34.4796 66.9223L34.491 66.8584L34.4636 66.822L34.4133 66.9109L34.4407 66.9473L34.4796 66.9223ZM34.5894 70.0293L34.6009 69.9654L34.5025 69.8742L34.4407 69.9358L34.5277 70.0498L34.5894 70.0293ZM37.04 72.2016L37.1705 71.4927C36.7883 71.3787 36.3788 71.283 35.944 71.2055C35.5093 71.1257 35.0974 71.03 34.7107 70.916L34.5551 71.4494L34.5643 71.7207L35.1569 71.8278L35.8685 71.9235L37.0423 72.2016H37.04ZM37.1453 71.3582L37.175 71.1918L37.1407 71.0231L37.2528 71.0436L37.294 70.8157L37.31 70.4601L34.7222 69.9495L34.6924 70.1159L34.7427 70.1569L34.816 70.0315L34.7862 70.8316L34.8983 70.8522L35.8182 70.9775L37.1476 71.3582H37.1453ZM34.8366 67.6472L34.7679 67.6107L34.7313 67.6289L34.7977 67.6745L34.8366 67.6494V67.6472ZM34.9372 70.8909L34.8297 70.8385L34.7771 70.8613L34.8846 70.9046L34.9372 70.8886V70.8909ZM35.1432 70.9935L34.983 70.9228L34.9281 70.9525L35.0814 71.014L35.1432 70.9935ZM35.0219 68.714L34.9876 68.6752L34.9487 68.7003L34.9761 68.7299L35.0196 68.714H35.0219ZM35.0837 68.6023L35.0105 68.5567L34.9716 68.5818L35.0379 68.6273L35.0837 68.6023ZM35.0471 68.1714L35.0219 68.1327L34.9761 68.1578L35.0105 68.1965L35.0471 68.1714ZM35.0882 68.1213L35.031 68.078L34.9853 68.1031L35.0539 68.1395L35.0905 68.1213H35.0882ZM35.3583 71.03L35.3102 70.9798L35.2461 71.0095L35.2965 71.0505L35.3583 71.03ZM35.5321 66.9565L35.3125 66.8926L35.2759 66.9109L35.4933 66.9838L35.5321 66.9587V66.9565ZM35.3857 68.8029L35.3903 68.7801L35.356 68.7413L35.3148 68.7915L35.3422 68.8279L35.388 68.8029H35.3857ZM35.5321 71.8916L35.3697 71.8301L35.3239 71.8552L35.4772 71.9144L35.5321 71.8916ZM35.4429 68.6661L35.4155 68.6296L35.3697 68.6547L35.404 68.6935L35.4429 68.6684V68.6661ZM35.5047 68.5544L35.4704 68.5156L35.4315 68.5407L35.4566 68.5772L35.5024 68.5521L35.5047 68.5544ZM35.674 71.1189L35.5756 71.0687L35.5047 71.0892L35.6191 71.1417L35.674 71.1189ZM35.793 71.1075L35.6877 71.0482L35.6328 71.0778L35.793 71.1075ZM35.9074 72.0238L35.7999 71.9714L35.7472 71.9942L35.8479 72.0375L35.9074 72.0238ZM36.0035 67.0727L35.8639 67.0157L35.8273 67.0408L35.9669 67.0909L36.0035 67.0727ZM36.4863 71.2648L36.1156 71.1645L36.0607 71.1873L36.4314 71.2876L36.484 71.2648H36.4863ZM36.1385 70.0931L36.1431 70.0703L37.786 69.546L36.8616 68.9465L36.8707 68.8918L36.7174 68.8302L36.7655 68.8393L37.9713 69.489L38.7927 69.1585L38.8362 69.1904L39.0353 69.0559L37.3604 68.7527L36.6899 68.6638L36.6808 68.7117L36.5115 68.6821L36.5252 68.6045L36.301 68.5635L36.2598 68.4655C36.7083 68.5134 37.1865 68.5795 37.6899 68.6593C38.1932 68.739 38.6852 68.8234 39.168 68.9123L39.3373 68.9761L39.3991 68.9556L39.4494 68.9966L39.573 68.9533L39.4449 69.0194L39.6027 69.106L39.3076 69.1425L38.1818 69.5893L39.6828 70.5216L39.6142 70.533L39.7309 70.6105L39.6073 70.5627L39.5547 70.5786L39.5959 70.6196L37.9301 69.6805L37.6418 69.717L37.2643 69.8765L36.1316 70.0954L36.1385 70.0931ZM36.2163 68.0871L36.2415 67.9526L37.0194 66.8653L36.9119 66.8128L37.1979 66.8402L37.0927 66.7878L38.104 66.9154L38.6509 67.0476L39.001 67.0795L38.8888 67.059L38.8271 67.0795C38.9506 67.2163 39.001 67.3531 38.9758 67.4899C38.9506 67.6266 38.9255 67.768 38.898 67.9161L38.8248 68.0483L38.8682 68.0803L39.7743 67.8774L39.8499 67.7771L39.8979 67.7862L39.9414 67.9093L39.6737 68.0552L39.7309 68.0985L39.9185 68.0187L39.9139 68.0415C39.7034 68.1395 39.4769 68.2079 39.2389 68.2489C39.001 68.29 38.7447 68.315 38.4724 68.3264L38.3649 68.274L38.374 68.2193C38.5067 68.1304 38.5937 68.021 38.6394 67.8979C38.6852 67.7725 38.7195 67.6403 38.7447 67.499L38.7264 67.2346L38.6143 67.214L38.1132 67.1479L37.7242 67.0522L37.3123 67.0909L37.4427 67.0568L37.4862 67.0887L37.6098 67.0545L37.2277 66.9291C37.1544 67.1434 37.0423 67.3576 36.8867 67.5674C36.7334 67.7794 36.5069 67.9526 36.2117 68.0894L36.2163 68.0871ZM36.4611 67.6996L36.4085 67.6654L36.349 67.6791L36.3994 67.7201L36.4611 67.6996ZM36.5389 68.5453L36.4314 68.4929L36.3765 68.5156L36.4749 68.5658L36.5366 68.5453H36.5389ZM36.5458 67.6016L36.4863 67.5651L36.4268 67.5788L36.4771 67.6198L36.5458 67.5993V67.6016ZM36.7632 72.2016L36.5504 72.1378L36.4977 72.1538L36.706 72.2336L36.7609 72.2016H36.7632ZM36.6144 67.499L36.571 67.4671L36.5023 67.4785L36.5595 67.5218L36.6144 67.499ZM36.6236 69.9859L36.5641 69.9495L36.5115 69.9654L36.5527 70.0065L36.6236 69.9859ZM36.6419 73.77L36.6648 73.6446L36.6213 73.6036L36.5458 73.7517L36.587 73.7928L36.6396 73.77H36.6419ZM36.8204 68.5407L36.6076 68.4769L36.5481 68.4906L36.7677 68.5544L36.8204 68.5384V68.5407ZM36.6739 69.9723L36.6327 69.9312L36.5618 69.9517L36.6739 69.9723ZM36.706 67.6312L36.6533 67.597L36.5938 67.6107L36.6442 67.6517L36.706 67.6312ZM36.7449 69.9517L36.8707 69.8925L36.8112 69.8492L36.6305 69.9312L36.7426 69.9517H36.7449ZM36.7906 73.3163L36.8089 73.2138L36.7517 73.1704L36.6739 73.3277L36.7174 73.3596L36.7906 73.3163ZM36.8066 73.5055L36.8135 73.4736L36.77 73.4326L36.6945 73.485L36.7517 73.5283L36.8066 73.5055ZM36.8753 73.4531L36.8913 73.3665L36.841 73.3255L36.7723 73.4349L36.8158 73.4759L36.8776 73.4554L36.8753 73.4531ZM36.9348 69.872L36.8821 69.8378L36.8135 69.8492L36.873 69.8925L36.9348 69.872ZM36.9874 69.8583L36.9439 69.8173L36.8821 69.8378L36.9874 69.856V69.8583ZM37.0126 67.2323L37.0171 67.2095L36.9645 67.1753L36.8913 67.2118L36.9485 67.2551L37.0103 67.2346L37.0126 67.2323ZM37.0721 66.9017L37.0194 66.8675L36.9508 66.879L37.008 66.9223L37.0698 66.9017H37.0721ZM37.159 69.8583L37.1087 69.8173L37.0538 69.8401L37.0949 69.8811L37.1567 69.8606L37.159 69.8583ZM37.6578 68.7185L37.1659 68.6045L37.1064 68.6182L37.5983 68.739L37.6601 68.7185H37.6578ZM37.2345 71.1667L37.191 71.1257L37.1201 71.1462L37.1773 71.1895L37.2322 71.1667H37.2345ZM37.2345 66.9063L37.1933 66.8653L37.1224 66.8858L37.1819 66.9223L37.2345 66.9086V66.9063ZM37.5549 70.6288L37.5777 70.5034L37.4748 70.4852L37.4153 70.4988L37.4954 70.6516L37.5571 70.6311L37.5549 70.6288ZM37.5251 71.422L37.532 71.3833L37.4793 71.3491L37.413 71.4015L37.4633 71.4426L37.5251 71.422ZM37.5663 71.1941L37.516 71.1531L37.4542 71.1736L37.5045 71.2146L37.5663 71.1941ZM37.6212 66.9998L37.5137 66.9565L37.461 66.9724L37.5686 67.0248L37.6212 67.002V66.9998ZM37.651 69.6919L37.6006 69.6508L37.5388 69.6714L37.5915 69.7056L37.651 69.6919ZM38.104 69.7101L38.0514 69.6759L37.9988 69.6896L38.0399 69.7306L38.1017 69.7101H38.104ZM38.628 67.157L38.136 67.0362L38.0743 67.0568L38.5662 67.1707L38.6257 67.157H38.628ZM38.5616 67.2026L38.2321 67.1092L38.1772 67.132L38.5021 67.2163L38.5616 67.2026ZM38.3191 69.8378L38.2596 69.8036L38.2001 69.8173L38.2505 69.8583L38.3214 69.8378H38.3191ZM38.3145 69.4958L38.2619 69.4617L38.2024 69.4753L38.2527 69.5164L38.3145 69.4958ZM38.3832 69.4844L38.326 69.4411L38.2642 69.4617L38.3855 69.4844H38.3832ZM38.4038 69.375L38.3466 69.3317L38.2848 69.3522L38.3374 69.3864L38.406 69.375H38.4038ZM38.4449 69.4639L38.3923 69.4297L38.3237 69.4411L38.4449 69.4639ZM38.4655 69.3545L38.4152 69.3135L38.3443 69.334L38.4655 69.3568V69.3545ZM38.5182 69.9677L38.477 69.9267L38.406 69.9472L38.4655 69.9837L38.5182 69.9677ZM38.6371 67.1046L38.4816 67.0431L38.4129 67.0636L38.5777 67.1183L38.6371 67.1046ZM38.5204 69.3317L38.477 69.2998L38.4175 69.3135L38.5227 69.3317H38.5204ZM38.5342 68.3082L38.4816 68.274L38.4221 68.2877L38.4724 68.3287L38.5342 68.3082ZM38.5891 69.3203L38.6463 69.2747L38.6028 69.2428L38.477 69.3021L38.5891 69.3226V69.3203ZM38.6463 69.9586L38.5868 69.9244L38.5273 69.9381L38.5777 69.9791L38.6463 69.9586ZM38.6783 70.0543L38.6371 70.0133L38.5662 70.0338L38.6257 70.0703L38.6783 70.0566V70.0543ZM38.7081 69.2611L38.6577 69.22L38.6051 69.2428L38.6486 69.2747L38.7081 69.2611ZM38.7172 68.2603L38.6738 68.2284L38.6143 68.2421L38.6669 68.2763L38.7195 68.2603H38.7172ZM38.7767 69.2405L38.8316 69.2177L38.6669 69.163L38.6577 69.2177L38.779 69.2405H38.7767ZM38.946 68.9054L38.7264 68.8325L38.6738 68.8553L38.8866 68.9191L38.946 68.9054ZM38.8385 70.1318L38.779 70.0976L38.7264 70.1136L38.7676 70.1546L38.8385 70.1341V70.1318ZM38.8682 67.4329L38.8843 67.3463L38.8408 67.3143L38.7653 67.4146L38.8179 67.4488L38.8705 67.4329H38.8682ZM39.081 69.0673L39.0902 69.0126L38.8728 68.9738L38.8179 68.9966L39.0238 69.0924L39.0788 69.0696L39.081 69.0673ZM38.9529 68.2786L38.8934 68.2353L38.8316 68.2558L38.8843 68.29L38.9529 68.2786ZM38.9941 70.2253L38.9369 70.182L38.8751 70.2025L38.9277 70.2367L38.9964 70.2253H38.9941ZM39.0788 68.1806L39.0261 68.1464L38.9735 68.16L39.0147 68.2011L39.0765 68.1806H39.0788ZM39.2 68.1464L39.1405 68.1122L39.0879 68.1281L39.1314 68.1692L39.2 68.1486V68.1464ZM39.2023 70.3461L39.1497 70.3119L39.0902 70.3256L39.1405 70.3666L39.2023 70.3461ZM39.2527 68.1304L39.2092 68.0894L39.1405 68.1099L39.2527 68.1304ZM39.319 68.0848L39.2664 68.0506L39.2138 68.0666L39.2572 68.0985L39.3167 68.0848H39.319ZM39.3625 70.4305L39.3099 70.3963L39.2412 70.4077L39.2984 70.451L39.3602 70.4305H39.3625ZM39.5066 68.062L39.4563 68.021L39.3945 68.0415L39.4449 68.0825L39.5066 68.062ZM39.573 70.5011L39.5227 70.4601L39.47 70.4829L39.5135 70.5148L39.573 70.5011Z" fill="#D80010"/>
<path d="M46.5906 74.6341L46.5975 74.1531L46.5219 74.1212L46.4945 74.2443L46.4396 74.258L46.4121 74.1486L46.419 73.4374L46.3435 73.4054L46.5334 71.4359L45.9545 71.3402L46.7485 71.094L47.1077 71.0553L47.0253 70.7293L46.6318 70.3646H45.8927L46.1101 70.262L45.6914 70.2985L45.5998 70.4375L45.8035 70.5104L45.6776 70.4763L45.6296 70.5538L45.8561 71.192L45.8424 71.1373L45.3596 70.2073L45.3184 70.2757L45.236 69.9497L45.2223 69.6556L45.0164 69.0629L45.0438 69.1724L45.1147 69.2202L45.1765 68.9649L45.6525 70.3737L46.4991 70.0979L46.4304 69.8266L46.1947 69.357L46.2085 69.1792L46.2908 69.2749L46.2977 69.0333C46.1032 69.0812 45.9156 69.1199 45.7394 69.1473C45.5609 69.1746 45.4168 69.1222 45.307 68.99L46.6775 66.6125L46.689 66.6603L46.5357 67.0524L46.6135 67.0912L46.8789 66.6717L46.8949 66.7333L46.872 66.9134L46.9498 66.9521L45.9293 68.5501C46.0254 68.6025 46.1238 68.6184 46.2222 68.5934C46.3206 68.5683 46.4258 68.5432 46.5425 68.5136L47.7255 67.8753L47.9108 67.8799L47.9543 68.0508L47.7392 68.1625L47.7667 68.272L47.9131 68.3517L47.8765 68.4771L47.9543 68.5227L47.904 68.5934L48.0069 68.7415L47.9475 69.5166L48.023 69.5553L48.0367 69.3707L48.19 69.7536L48.2975 70.6609L48.595 70.6449L48.3936 70.8113L48.913 70.9139L48.2037 71.2627C48.1076 71.2103 47.9909 71.1989 47.8559 71.2331C47.7209 71.2672 47.5974 71.2969 47.4807 71.3265L47.5356 71.5431C47.7255 71.8098 47.9337 72.0719 48.158 72.3272C48.3845 72.5825 48.6247 72.8128 48.8833 73.0179L50.3569 72.5369L50.048 72.5461L50.2745 72.4412C50.652 72.5005 51.0433 72.5119 51.4437 72.4708C51.8441 72.4298 52.2469 72.4002 52.6519 72.3842L52.6908 72.309L52.2308 71.6707V71.4382L51.9631 70.8615C52.2675 71.094 52.5191 71.3607 52.7159 71.6616C52.9127 71.9625 53.098 72.2862 53.2697 72.635L53.098 72.4458V72.676C52.5603 72.6555 52.0249 72.6806 51.4895 72.7558C50.9541 72.831 50.4209 72.9495 49.8924 73.1137L48.9336 73.4738L48.5378 73.3325L48.5012 73.4579L48.3914 73.2527L47.7049 73.1912L48.2037 73.002L47.2038 71.9192L47.245 71.8508L46.8148 71.3698C46.7439 71.8941 46.6844 72.4321 46.6386 72.986C46.5929 73.5399 46.5746 74.0893 46.5883 74.6364L46.5906 74.6341ZM45.4854 68.9467L45.4076 68.9079L45.3664 68.9763L45.4351 69.0174L45.4854 68.9467ZM45.5838 69.104L45.5678 69.0424L45.4992 69.0014L45.4648 69.1336L45.5426 69.1724L45.5838 69.104ZM45.6387 68.851L45.6891 68.7803L45.5014 68.7689L45.5289 68.8783L45.5975 68.9193L45.6387 68.851ZM45.6616 68.4338L45.5953 68.3996L45.5426 68.4611L45.6204 68.5067L45.6593 68.4315L45.6616 68.4338ZM45.7051 68.3745L45.6364 68.3335L45.5953 68.4019L45.7051 68.3745ZM45.7554 68.3039L45.6776 68.256L45.6387 68.3312L45.7577 68.3016L45.7554 68.3039ZM45.7943 68.2286L45.7257 68.1876L45.6753 68.2583L45.7943 68.2286ZM46.1467 68.6709L45.9453 68.6048L45.9042 68.6731L45.7714 68.6481L45.6891 68.7848L46.1055 68.7393L46.1467 68.6709ZM45.8355 68.1625L45.7692 68.1306L45.7257 68.1899L45.8355 68.1625ZM45.863 68.5113L45.7943 68.4703L45.744 68.5409L45.8218 68.5797L45.863 68.5113ZM45.8881 68.851L45.8126 68.8122L45.7714 68.8806L45.8401 68.9216L45.8904 68.851H45.8881ZM45.9042 68.4429L45.8332 68.395L45.7943 68.4703L45.9042 68.4429ZM45.9156 68.9604L45.8378 68.9216L45.7966 68.99L45.9156 68.9604ZM46.0071 68.3517L45.8767 68.3335L45.8332 68.395L46.0071 68.3517ZM46.1192 69.0333L45.9316 69.0219L45.8813 69.0926L46.0666 69.0971L46.1192 69.0356V69.0333ZM46.1742 68.7803L46.0506 68.7529L46.0003 68.8236L46.133 68.8487L46.1742 68.7803ZM46.2794 68.9353L46.1444 68.9034L46.1055 68.9786L46.2291 69.006L46.2794 68.9353ZM46.2474 67.5972L46.1764 67.5493L46.1375 67.6246L46.2062 67.6656L46.2474 67.5972ZM46.2954 67.5197L46.2199 67.4878L46.1764 67.5493L46.2954 67.5197ZM46.3297 67.9255L46.2611 67.8844L46.2199 67.9528L46.2908 68.0007L46.3297 67.9255ZM46.3481 68.7393L46.2794 68.6982L46.2382 68.7666L46.3069 68.8076L46.3481 68.7393ZM46.6775 70.0614L46.6089 69.7878L46.2428 69.2932L46.2542 69.5781L46.5014 70.1024L46.6753 70.0591L46.6775 70.0614ZM46.3801 67.8571L46.3023 67.8183L46.2611 67.8867L46.3801 67.8571ZM46.3755 68.8487L46.3069 68.8076L46.2657 68.876L46.3366 68.9239L46.3755 68.8487ZM46.4236 67.5562L46.3526 67.5083L46.3137 67.5835L46.3824 67.6246L46.4236 67.5562ZM46.4442 69.3593L46.4304 69.3046L46.3618 69.2635L46.3252 69.3866L46.403 69.4345L46.4419 69.3593H46.4442ZM46.4647 73.3849L46.3984 73.3507L46.3458 73.4123L46.4213 73.4442L46.4647 73.3849ZM46.5265 67.465L46.5563 67.351L46.4853 67.3032L46.3526 67.5083L46.5265 67.465ZM46.5082 71.3334L46.4327 71.2946L46.3915 71.363L46.4602 71.404L46.5105 71.3334H46.5082ZM46.927 68.5956L46.5105 68.6412L46.4693 68.7096L46.8858 68.664L46.927 68.5956ZM46.5792 68.9216L46.5105 68.8806L46.4693 68.949L46.5357 68.9832L46.5792 68.9239V68.9216ZM46.5975 67.2735L46.5288 67.2325L46.4876 67.3009L46.5586 67.3487L46.5975 67.2735ZM46.6684 68.7757L46.5357 68.7507L46.4945 68.819L46.6295 68.851L46.6684 68.7757ZM46.6455 67.2051L46.57 67.1732L46.5265 67.2325L46.6455 67.2029V67.2051ZM47.5791 68.2628L47.5928 68.085L47.753 68.2195L47.9131 67.8822L47.499 67.9346L46.5448 68.5181C46.6455 68.6093 46.7622 68.6276 46.8903 68.5774C47.0208 68.5273 47.142 68.4862 47.2587 68.4566L47.5791 68.2628ZM46.6775 70.303L46.6066 70.2551L46.5586 70.3326L46.6341 70.3714L46.6753 70.303H46.6775ZM46.7622 71.1487L46.6409 71.1305L46.5906 71.192L46.7233 71.2239L46.7622 71.1487ZM47.7621 69.7377L47.6775 68.6526L47.261 68.6982L46.5906 68.9718L46.6592 69.2521L46.9132 70.0067L47.7186 69.8083L47.7598 69.74L47.7621 69.7377ZM46.7668 69.6853L46.7416 69.585L46.673 69.5439L46.6569 69.7126L46.7279 69.7605L46.7668 69.6853ZM46.808 67.1162L46.7302 67.0706L46.6913 67.1459L46.7576 67.1801L46.8103 67.1185L46.808 67.1162ZM46.8926 70.4215L46.8652 70.3121L46.7462 70.3418L46.7027 70.401L46.8514 70.4877L46.8926 70.4193V70.4215ZM46.8469 67.0387L46.7782 66.9977L46.7279 67.0684L46.8469 67.0387ZM47.0986 71.4838L47.0208 71.4382L46.9819 71.5134L47.0482 71.5476L47.1008 71.4861L47.0986 71.4838ZM47.1237 71.5841L47.0459 71.5453L47.0047 71.6137L47.0734 71.6548L47.1237 71.5841ZM47.7758 70.0272L47.5859 70.0089L47.0253 70.2141L47.094 70.4877L47.3228 70.4307L47.7758 70.0295V70.0272ZM47.2061 71.6867L47.1352 71.6388L47.0871 71.7163L47.1649 71.7551L47.2061 71.6867ZM48.1511 70.7999L48.1099 70.6358L47.7324 70.0933L47.0917 70.4831L47.1192 70.5925L47.2839 71.0142L48.1534 70.7999H48.1511ZM47.2816 71.4861L47.2061 71.4564L47.1626 71.5157L47.2313 71.5567L47.2816 71.4861ZM47.2816 71.2536L47.213 71.2125L47.1626 71.2832L47.2404 71.322L47.2816 71.2536ZM47.6042 68.3677L47.3068 68.3836L47.2564 68.4543L47.5631 68.4361L47.6042 68.3677ZM47.4486 71.4451L47.3114 71.363L47.2725 71.4382L47.4509 71.4428L47.4486 71.4451ZM47.6454 68.5318L47.348 68.5478L47.2976 68.6184L47.6065 68.6093L47.6454 68.5341V68.5318ZM47.4601 71.9716L47.3914 71.9306L47.3411 72.0013L47.4189 72.04L47.4601 71.9716ZM47.4738 71.7938L47.4029 71.7459L47.364 71.8212L47.4326 71.8622L47.4738 71.7938ZM47.6431 70.9914L47.4532 70.9732L47.4143 71.0484L47.6019 71.0598L47.6431 70.9914ZM47.5516 71.6001L47.5356 71.5385L47.4601 71.4998L47.4349 71.6297L47.5036 71.6707L47.5539 71.6001H47.5516ZM47.5562 71.8873L47.4875 71.8462L47.4464 71.9146L47.515 71.9557L47.5562 71.8873ZM47.753 71.1943L47.5653 71.1829L47.5242 71.2513L47.7118 71.2627L47.753 71.1943ZM47.6477 71.9807L47.5699 71.942L47.5287 72.0104L47.5974 72.0514L47.6477 71.9807ZM47.6546 72.2771L47.5836 72.2292L47.5447 72.3044L47.6134 72.3455L47.6546 72.2771ZM47.7438 72.3637L47.6683 72.3318L47.6386 72.4458L47.7095 72.4936L47.7438 72.3614V72.3637ZM47.8285 72.4663L47.7575 72.4184L47.7232 72.5506L47.7987 72.5894L47.8262 72.4663H47.8285ZM47.8742 68.9467L47.8193 68.7279L47.7415 68.68L47.7553 68.974L47.8239 69.0151L47.8742 68.9444V68.9467ZM47.8765 69.936L47.801 69.8973L47.7598 69.9656L47.8308 70.0135L47.8788 69.936H47.8765ZM47.9177 70.1001L47.9063 70.0545L47.8285 70.0158L47.7987 70.1298L47.8697 70.1776L47.9177 70.1001ZM48.0344 71.0712L47.8468 71.0598L47.8056 71.1282L47.9932 71.1396L48.0344 71.0712ZM47.9108 72.5643L47.8422 72.5233L47.8147 72.6464L47.8834 72.6874L47.9108 72.5643ZM48.0138 72.7125L48.0001 72.6578L47.9246 72.619L47.8971 72.7421L47.9681 72.79L48.0161 72.7125H48.0138ZM48.0916 72.2794L48.0161 72.2474L47.9726 72.3067L48.0413 72.3477L48.0916 72.2771V72.2794ZM48.1076 69.8813L48.0298 69.8425L47.9886 69.9109L48.0596 69.9588L48.1076 69.8813ZM48.1534 70.572L48.087 70.5401L48.0436 70.5993L48.1122 70.6404L48.1534 70.572ZM48.1763 72.3819L48.1053 72.3341L48.0573 72.4116L48.1351 72.4503L48.1763 72.3819ZM48.1808 70.9185L48.1122 70.8774L48.0619 70.9481L48.1374 70.9869L48.1786 70.9185H48.1808ZM50.6589 72.1791L50.5536 72.1631L50.1898 71.8804L49.977 71.9329C49.7391 72.0127 49.5171 72.1129 49.3089 72.2292C49.1007 72.3477 48.8764 72.448 48.6339 72.5369L48.6019 72.6122L48.563 72.5552L48.4211 72.5917L48.5264 72.5073L48.4669 72.4731L48.2678 72.5461L48.2907 72.5392L48.309 72.5096L48.1625 72.5301L48.0802 72.5666L48.0962 72.562L48.1236 72.5392L48.071 72.5278L48.5172 72.3683L48.5012 72.3067H48.476L48.4531 72.3181C48.563 72.0423 48.6431 71.7619 48.6865 71.4724C48.7323 71.1829 48.7597 70.898 48.7666 70.6153L48.7964 70.6335L48.8375 70.499L48.9085 70.5811L48.9176 70.5469L48.9863 70.588L49.0206 70.5218C48.9405 70.8068 48.9039 71.0963 48.9108 71.3903C48.9176 71.6867 48.8513 71.983 48.714 72.2816L48.8101 72.2588C49.0206 72.1859 49.2219 72.1038 49.4119 72.0149C49.6018 71.926 49.8054 71.8554 50.0228 71.8029L50.0365 71.8576L50.1326 71.8349L50.1532 71.8143C50.0525 71.7505 49.9519 71.6776 49.8512 71.5955C49.7505 71.5134 49.6636 71.4291 49.5903 71.3425L49.6132 71.3356H49.6887L49.6796 71.2946L49.6521 71.2855L50.0457 71.5841L50.0617 71.5476L49.7803 71.2946L50.3111 71.7756L50.4347 71.7619L50.3546 71.8075L50.7321 72.1426L50.6772 72.1243L50.668 72.1836L50.6589 72.1791ZM48.3227 72.9723L48.2998 72.8789L48.1259 72.6828V72.9222L48.2838 73.0476L48.3227 72.9723ZM48.3113 73.157L48.1786 73.1319L48.1374 73.2003L48.2609 73.2276L48.3113 73.157ZM48.2586 72.4754L48.19 72.4344L48.1488 72.5028L48.2175 72.5438L48.2586 72.4754ZM48.206 72.4959H48.1808L48.158 72.5073L48.1877 72.5255L48.206 72.4959ZM51.0341 71.1191L51.025 71.0803L50.9518 70.4466L50.9037 70.417L50.8854 70.5127L50.8259 70.2711C50.8099 69.9839 50.7641 69.683 50.6841 69.3684C50.6063 69.0538 50.5285 68.7484 50.4553 68.4475L50.334 68.2947C50.2287 68.7894 50.096 69.2727 49.9381 69.7422C49.7803 70.2141 49.6041 70.6928 49.4073 71.1829L49.3158 71.1145L49.2471 71.3128L49.4164 70.743L49.3684 70.7224L49.2242 71.0553C49.4233 70.5993 49.5972 70.1343 49.7414 69.6647C49.8878 69.1929 50.0297 68.7233 50.1715 68.2537L49.9084 68.2765L48.1808 68.7871L48.2518 68.7689L48.4531 68.6367C48.3914 68.5911 48.3181 68.5797 48.2335 68.6002C48.1488 68.6207 48.7872 68.4361 50.1509 68.044L50.2722 68.0554L50.2104 67.8069L50.1578 67.6952L50.0983 67.3556L50.0251 67.1595L50.0342 67.1983L50.0686 67.2393L50.0457 66.9817C49.8718 67.025 49.6887 67.0775 49.4988 67.1413C49.3089 67.2051 49.1236 67.1983 48.9474 67.1208L49.4485 66.9134L48.6247 67.0752L48.9451 66.9453L48.4348 66.9817L49.913 66.617C49.993 66.5144 50.0182 66.4027 49.9885 66.2796C49.9587 66.1588 49.9267 66.0266 49.8901 65.8876L49.707 65.4545L49.7162 65.4932L49.7665 65.5297V65.3906L49.9381 65.6117L49.9679 65.5639L49.9999 65.6892L49.9816 65.785L50.2836 66.5281L51.883 66.3138L51.6634 66.4096L51.7114 66.4392L51.6016 66.4666L51.5673 66.4347L51.0753 66.6808L51.4186 66.6444L50.3752 66.902L50.5697 67.9847C50.9838 67.8548 51.3934 67.7613 51.7961 67.7066C52.1988 67.6519 52.613 67.6109 53.0386 67.5904L53.0477 67.6291L52.7388 67.7044L52.6587 67.6838L52.4505 67.8252C52.1874 67.8297 51.9288 67.8571 51.6702 67.9072C51.4117 67.9574 51.1554 68.0007 50.9014 68.0349L50.8717 68.0828C50.9724 68.1739 51.0822 68.2195 51.1989 68.2195C51.3156 68.2195 51.4254 68.2674 51.5261 68.3563L53.5511 69.8539L53.5122 69.8631L53.4619 69.8266L53.4527 69.9269L53.3932 70.0249L53.7502 70.4489L53.741 70.4101L53.1026 69.7992L53.0797 69.879L53.1278 69.9086L52.6633 69.5941L52.6358 69.6511L51.0319 68.4292L51.0616 68.3814L50.7779 68.1876L50.8076 68.1397L50.5994 68.1101L51.2218 71.078L51.1119 71.1054L51.0616 71.0758L51.0319 71.1236L51.0341 71.1191ZM48.3616 72.6213L48.2838 72.5825L48.2426 72.6509L48.3136 72.6988L48.3616 72.6213ZM48.3822 70.9823L48.3044 70.9436L48.2632 71.0119L48.3319 71.053L48.3822 70.9823ZM48.3776 72.4777L48.3479 72.4594L48.3296 72.4891L48.357 72.4982L48.3776 72.4777ZM48.5538 73.1524L48.4852 73.1114L48.4348 73.1821L48.5103 73.2208L48.5515 73.1524H48.5538ZM48.5584 72.5324L48.579 72.5119L48.5286 72.5073L48.4646 72.5552L48.5424 72.562L48.5607 72.5324H48.5584ZM48.5195 72.2771L48.4897 72.2588L48.4714 72.2885L48.4989 72.2976L48.5195 72.2771ZM48.5675 72.4708L48.5378 72.4526L48.5195 72.4822L48.5492 72.5005L48.5675 72.4708ZM48.579 72.3113L48.5492 72.293L48.5309 72.3227L48.5584 72.3318L48.579 72.3113ZM48.6064 72.4207L48.5538 72.4093L48.5355 72.4389L48.5858 72.4435L48.6064 72.423V72.4207ZM48.595 72.2748L48.5675 72.2657L48.5469 72.2862H48.5721L48.5927 72.2748H48.595ZM48.7552 73.2185L48.6225 73.1934L48.5813 73.2618L48.714 73.2869L48.7552 73.2185ZM48.6728 72.4868L48.6682 72.4708L48.6385 72.4526L48.6042 72.5187L48.6339 72.5369L48.6728 72.4868ZM48.6774 71.7346L48.6499 71.7254L48.6293 71.7459L48.6591 71.7642L48.6774 71.7346ZM48.6865 72.4435L48.6568 72.4252L48.6385 72.4549L48.6682 72.4731L48.6865 72.4435ZM48.6865 71.6753L48.6568 71.657L48.6385 71.6867L48.6659 71.6958L48.6865 71.6753ZM48.6865 72.1859L48.6659 72.1745L48.6453 72.195L48.6751 72.2133L48.6842 72.1859H48.6865ZM48.7231 72.0286L48.6934 72.0104L48.6842 72.0377L48.7048 72.0491L48.7254 72.0286H48.7231ZM48.778 72.3523L48.7117 72.3614L48.6911 72.3751L48.7689 72.3819L48.778 72.3546V72.3523ZM48.7552 71.1783L48.7346 71.1578L48.7163 71.1875L48.7437 71.1966L48.7552 71.1783ZM48.9542 73.2915L48.7643 73.2732L48.7254 73.3485L48.9039 73.3553L48.9565 73.2937L48.9542 73.2915ZM48.7735 71.1145L48.7689 71.0986L48.7323 71.0826L48.7254 71.1259L48.746 71.1373L48.7735 71.1145ZM48.8101 71.7665L48.7803 71.7482L48.762 71.7779L48.7895 71.787L48.8101 71.7665ZM48.8536 71.575L48.833 71.5636L48.8124 71.5841L48.8398 71.5932L48.8513 71.575H48.8536ZM48.8719 71.249L48.8444 71.2399L48.8238 71.2604L48.8536 71.2786L48.8719 71.249ZM48.9771 68.3745L48.8879 68.3563L48.865 68.4042L48.9542 68.4224L48.9771 68.3745ZM48.9199 70.6427L48.9153 70.6199L48.8879 70.6107L48.8742 70.6563L48.9016 70.6655L48.9222 70.6449L48.9199 70.6427ZM49.1785 72.9974H48.9359L48.8947 73.0681H49.1373L49.1785 72.9974ZM49.27 73.0909L49.1373 73.0658L49.0961 73.1342L49.2197 73.1615L49.27 73.0909ZM49.421 73.2276L49.2357 73.2231L49.1922 73.2846L49.3798 73.296L49.421 73.2276ZM49.4302 71.0051L49.3867 70.9664L49.3592 71.0233L49.4096 71.053L49.4325 71.0051H49.4302ZM49.4393 70.7065L49.389 70.67L49.3615 70.727L49.4096 70.7475L49.4416 70.7065H49.4393ZM49.9999 71.8485L50.0205 71.828L49.7139 71.8782L49.3615 72.0468L49.5331 72.0286C49.6041 71.9785 49.6887 71.9488 49.7848 71.942C49.8809 71.9352 49.9519 71.9032 49.9999 71.8462V71.8485ZM49.4508 70.9185L49.4004 70.882L49.3798 70.9367L49.4187 70.9595L49.4508 70.9185ZM49.4508 70.613L49.4073 70.5743L49.389 70.67L49.4508 70.613ZM49.4782 70.8615L49.4279 70.825L49.4004 70.882L49.4782 70.8615ZM49.4851 70.5538L49.4256 70.5196L49.405 70.5743L49.4828 70.556L49.4851 70.5538ZM49.5057 70.499L49.4645 70.4671L49.4256 70.5173L49.5034 70.4968L49.5057 70.499ZM49.4988 70.8068L49.4897 70.768L49.4485 70.7361L49.4279 70.8227L49.4988 70.8045V70.8068ZM49.7299 72.9792H49.4874L49.4462 73.0498H49.6887L49.7299 72.9792ZM49.5286 70.7179L49.4736 70.6996L49.4508 70.7384L49.4919 70.7703L49.5308 70.7202L49.5286 70.7179ZM49.5514 70.6791L49.5697 70.5834L49.5194 70.5469L49.4736 70.6996L49.5537 70.6791H49.5514ZM49.556 70.3646L49.5057 70.3349L49.4759 70.3828L49.5263 70.4193L49.5537 70.3623L49.556 70.3646ZM49.826 66.9042L49.524 66.9384L49.4874 66.9886L49.7963 66.9521L49.826 66.9042ZM49.5766 70.319L49.5354 70.2871L49.5057 70.3349L49.5766 70.3167V70.319ZM49.5949 70.5287L49.5446 70.4922L49.5171 70.5492L49.5675 70.5857L49.5949 70.5287ZM49.6155 70.474L49.5743 70.4421L49.5446 70.4899L49.6155 70.4717V70.474ZM49.6453 70.4261L49.5972 70.4056L49.5743 70.4443L49.6453 70.4261ZM49.6658 70.3395L49.6155 70.3098L49.5858 70.3577L49.6361 70.3942L49.6636 70.3372L49.6658 70.3395ZM49.6796 70.2939L49.7459 70.0545L49.7047 70.0226L49.6155 70.3076L49.6796 70.2916V70.2939ZM50.0274 66.9384L49.7253 66.9726L49.6956 67.0205L49.9999 66.9954L50.0274 66.9384ZM50.1052 73.0134L49.7414 73.0362L49.7025 73.1114L50.0617 73.0726L50.1052 73.0134ZM49.7757 70.0067L49.7665 69.9679L49.7162 69.9314L49.7047 70.0249L49.7459 70.0568L49.7757 70.0089V70.0067ZM49.7848 69.9132L49.7436 69.8813L49.7139 69.9292L49.7642 69.9656L49.7848 69.9109V69.9132ZM49.8146 69.8653L49.7665 69.8448L49.7436 69.8836L49.8146 69.8653ZM49.8008 71.5294L49.7711 71.5112L49.7528 71.5408L49.7803 71.5499L49.8008 71.5294ZM49.8535 69.4186L49.8123 69.3866L49.7825 69.4345L49.8329 69.471L49.8535 69.4163V69.4186ZM50.0182 72.9108L49.8306 72.8994L49.7894 72.9678L49.9679 72.9815L50.0182 72.9108ZM49.8764 69.8152L49.8329 69.7764L49.8054 69.8334L49.8535 69.8539L49.8764 69.8152ZM49.8832 69.3684L49.8352 69.3388L49.8123 69.3866L49.8832 69.3684ZM49.9107 69.2795L49.8535 69.2521L49.8237 69.3L49.8741 69.3297L49.9107 69.2795ZM49.8832 71.5909L49.8626 71.5727L49.8443 71.6023H49.8695L49.8832 71.5932V71.5909ZM49.9153 69.667L49.8741 69.6351L49.8443 69.683L49.8924 69.7126L49.9153 69.6647V69.667ZM49.9244 69.2362L50.08 68.7187L50.0297 68.6823L49.8535 69.2544L49.9244 69.2362ZM49.9725 69.5302L49.9153 69.5029L49.8741 69.6374L49.9725 69.5302ZM49.9702 65.9149L49.9404 65.7987L49.8924 65.769V65.9332L49.9404 65.9628L49.9702 65.9149ZM49.9404 71.6274L49.9198 71.616L49.8924 71.6388L49.929 71.6456L49.9404 71.6274ZM50.0388 69.3319L49.9908 69.3023L49.9153 69.5029L50.0411 69.3319H50.0388ZM50.0434 72.79L49.9747 72.7489L49.9244 72.8196L49.9999 72.8584L50.0411 72.79H50.0434ZM49.9725 71.6593L49.9427 71.6411L49.9336 71.6684L49.9541 71.6867L49.9725 71.657V71.6593ZM50.0342 69.2088L49.9999 69.1678L49.9725 69.2248L50.0205 69.2544L50.0342 69.2088ZM50.0457 66.5555L50.0342 66.5099L49.993 66.478L49.9747 66.5737L50.0228 66.5942L50.0457 66.5555ZM50.0365 71.7095L50.0068 71.6912L49.9885 71.7209L50.0159 71.73L50.0365 71.7095ZM50.1006 68.664L50.1189 68.5683L50.0708 68.5478L50.0297 68.6823L50.08 68.7187L50.1006 68.664ZM50.1006 68.9695L50.0594 68.9376L50.0297 68.9854L50.08 69.0219L50.1006 68.9672V68.9695ZM50.0983 71.7528L50.0686 71.7346L50.0503 71.7642L50.08 71.7824L50.0983 71.7528ZM50.1235 69.0561L50.0823 69.0242L50.0525 69.0721L50.1029 69.1017L50.1258 69.0561H50.1235ZM50.1166 67.3145L50.0686 67.2849L50.0548 67.3305L50.0891 67.3647L50.1189 67.3168L50.1166 67.3145ZM50.1418 68.5295L50.1326 68.4908L50.0891 68.452L50.0708 68.5478L50.1189 68.5683L50.1418 68.5295ZM50.128 71.7779H50.1029L50.08 71.7893L50.1097 71.8075L50.128 71.7779ZM50.1624 68.9125L50.1212 68.8806L50.0914 68.9285L50.1395 68.9581L50.1624 68.9102V68.9125ZM50.2196 67.7249L50.1715 67.6952L50.1578 67.7408L50.1944 67.7819L50.2219 67.7249H50.2196ZM50.2447 68.4611L50.2333 68.4133L50.1921 68.3814L50.1738 68.4771L50.2219 68.5067L50.2447 68.4589V68.4611ZM50.263 68.3654L50.2905 68.2674L50.2333 68.24L50.1921 68.3814L50.2333 68.4133L50.263 68.3654ZM50.3042 68.2241L50.2699 68.1899L50.231 68.24L50.2882 68.2674L50.3019 68.2218L50.3042 68.2241ZM50.3591 66.8564L50.318 66.8244L50.2882 66.8723L50.3386 66.9088L50.3591 66.8541V66.8564ZM50.8259 72.7102L50.5285 72.7261L50.4781 72.7968L50.7847 72.7786L50.8259 72.7102ZM50.5651 72.1312L50.5353 72.113L50.517 72.1426L50.5445 72.1517L50.5651 72.1312ZM50.6177 72.1358L50.5903 72.1266L50.5697 72.1471L50.5971 72.1563L50.6177 72.1358ZM50.8557 72.5894L50.6772 72.5757L50.6269 72.6464L50.8145 72.6578L50.8557 72.5894ZM50.906 72.5187L50.8282 72.48L50.787 72.5483L50.906 72.5187ZM51.1165 66.5874L50.8145 66.6216L50.7939 66.6694L51.0959 66.6353L51.1188 66.5874H51.1165ZM50.9083 70.2962L50.8991 70.2574L50.8488 70.2209L50.8305 70.3167L50.8808 70.3532L50.9083 70.2962ZM51.0593 72.6532L50.9358 72.6258L50.8854 72.6965L51.0181 72.7216L51.0593 72.6532ZM50.993 68.2765L50.9495 68.2378L50.922 68.2947L50.9701 68.3244L50.993 68.2765ZM51.2538 68.5181L51.2035 68.4885L51.1737 68.5364L51.2218 68.5569L51.2538 68.5159V68.5181ZM51.3842 68.5683L51.3408 68.5295L51.3042 68.5888L51.3614 68.6162L51.3842 68.5683ZM51.4941 68.5409L51.4437 68.5045L51.4231 68.5592L51.4643 68.5911L51.4941 68.5432V68.5409ZM51.5536 68.4771L51.5147 68.4543L51.4826 68.4953L51.533 68.5318L51.5536 68.4771ZM51.684 68.6686L51.6268 68.6412L51.6039 68.6891L51.6451 68.721L51.684 68.6709V68.6686ZM51.7938 72.6464L51.6725 72.6281L51.6199 72.6897L51.7526 72.7147L51.7938 72.6464ZM51.835 68.8054L51.7869 68.7757L51.7503 68.8259L51.8075 68.8532L51.8373 68.8054H51.835ZM51.9334 68.8646L51.8762 68.8373L51.8533 68.8829L51.8945 68.9148L51.9334 68.8646ZM51.9563 68.8168L51.9151 68.7871L51.8762 68.8373L51.9563 68.8168ZM51.9769 69.0356L51.9197 69.0082L51.8968 69.0561L51.938 69.088L51.9769 69.0379V69.0356ZM52.0272 68.933L51.9769 68.8965L51.9563 68.9513L51.9997 68.99L52.0272 68.933ZM52.0867 72.5757L52.0112 72.5438L51.9677 72.6031L52.0364 72.6441L52.0867 72.5734V72.5757ZM52.0684 69.0971L52.018 69.0675L51.9952 69.1154L52.0364 69.145L52.0661 69.0971H52.0684ZM52.121 69.0014L52.073 68.9718L52.0501 69.0196L52.0913 69.0516L52.121 69.0037V69.0014ZM52.2194 69.0607L52.1622 69.0333L52.1393 69.0789L52.1805 69.1108L52.2194 69.0607ZM52.2148 69.243L52.1714 69.2043L52.1439 69.2613L52.1919 69.2818L52.2148 69.243ZM52.2766 71.3744L52.2606 71.3128L52.1919 71.2718L52.1645 71.4017L52.2331 71.4428L52.2743 71.3744H52.2766ZM52.2926 72.6509L52.2148 72.6053L52.1759 72.6806L52.2446 72.7216L52.2949 72.6509H52.2926ZM52.3041 69.1222L52.2537 69.0926L52.24 69.1382L52.2743 69.1792L52.3018 69.1222H52.3041ZM52.3956 71.5773L52.3819 71.5226L52.3041 71.4838L52.2766 71.6069L52.3452 71.6479L52.3956 71.5773ZM52.3658 69.0652L52.3178 69.0356L52.2949 69.0835L52.3361 69.1154L52.3658 69.0675V69.0652ZM52.3864 69.1518L52.3361 69.1154L52.3155 69.1701L52.359 69.2088L52.3864 69.1518ZM52.407 69.4026L52.3658 69.3707L52.3361 69.4186L52.3864 69.455L52.407 69.4003V69.4026ZM52.4917 71.7277L52.4803 71.6798L52.4093 71.632L52.3727 71.7573L52.4482 71.7961L52.4894 71.7277H52.4917ZM52.4688 69.4778L52.4208 69.4482L52.3979 69.4938L52.4391 69.5257L52.4688 69.4778ZM52.4848 69.341L52.4276 69.3137L52.3979 69.3616L52.4459 69.3912L52.4848 69.341ZM52.478 69.2111L52.4459 69.186L52.407 69.2294L52.4642 69.2567L52.478 69.2111ZM52.5695 71.534L52.494 71.4952L52.4528 71.5636L52.5214 71.6046L52.5718 71.534H52.5695ZM52.5764 71.8303L52.5054 71.7824L52.4665 71.8576L52.5329 71.8896L52.5764 71.8303ZM52.558 69.161L52.5077 69.1245L52.4711 69.1815L52.526 69.202L52.558 69.161ZM52.5466 69.2863L52.4871 69.2521L52.4757 69.3046L52.51 69.3365L52.5489 69.2863H52.5466ZM52.5718 69.585L52.5375 69.553L52.4986 69.6032L52.5558 69.6305L52.5695 69.585H52.5718ZM52.7708 69.5781L52.7617 69.5394L52.5191 69.3752V69.4664L52.7502 69.6305L52.7708 69.5758V69.5781ZM52.6633 71.9078L52.5878 71.8759L52.5443 71.9352L52.6152 71.983L52.6633 71.9055V71.9078ZM52.6793 71.7391L52.6656 71.6844L52.5992 71.6525L52.5603 71.7687L52.6381 71.8143L52.677 71.7391H52.6793ZM52.6381 69.3456L52.5969 69.3137L52.5672 69.3616L52.6175 69.398L52.6381 69.3433V69.3456ZM52.6473 69.2111L52.5969 69.1815L52.5764 69.2294L52.6198 69.2681L52.6473 69.2111ZM52.6999 69.4208L52.6519 69.3912L52.629 69.4391L52.6702 69.471L52.6999 69.4231V69.4208ZM52.7754 71.8804L52.764 71.8349L52.6976 71.8007L52.6541 71.8622L52.7754 71.8804ZM52.7411 69.2795L52.693 69.2499L52.6702 69.2955L52.7114 69.3274L52.7411 69.2795ZM52.8052 72.2292L52.7365 72.1882L52.6862 72.2588L52.764 72.2976L52.8052 72.2292ZM52.7937 69.4915L52.7434 69.455L52.7228 69.5097L52.764 69.5416L52.7937 69.4938V69.4915ZM52.812 69.3958L52.764 69.3661L52.7342 69.414L52.7846 69.4436L52.8143 69.3958H52.812ZM52.9127 69.667L52.8235 69.6146L52.8029 69.6944L52.9058 69.7673L52.915 69.667H52.9127ZM53.0546 69.5918L53.0477 69.5599L52.8555 69.4254L52.8463 69.5189L53.0386 69.6853L53.0569 69.5895L53.0546 69.5918ZM52.9768 69.7514L52.9264 69.7149L52.9058 69.7696L52.947 69.8015L52.9768 69.7536V69.7514ZM53.0752 72.3363L53.0088 72.3044L52.9562 72.366L53.034 72.4047L53.0752 72.3363ZM53.0569 69.7719L53.0157 69.74L52.9859 69.7878L53.0363 69.8243L53.0569 69.7696V69.7719ZM53.3955 69.8539L53.1804 69.6009L53.0614 69.6305L53.034 69.6875L53.3658 69.9109L53.3932 69.8539H53.3955Z" fill="#D80010"/>
<path d="M61.928 68.4839L61.8937 68.4406L61.7793 68.3882L61.7129 68.2149L61.6282 68.2012L61.5687 66.9794L61.4383 67.0113L61.4932 66.8859L60.9212 66.3662L60.7816 66.4779L60.7473 66.4346L60.8732 66.1109L59.7474 66.7081L60.3721 66.0585L60.1066 66.1155L60.912 65.4043L60.3263 64.6702L60.0975 64.8526L59.4728 65.5023L59.3813 65.4931L59.4522 65.2948L59.3424 65.1581L59.2532 65.2287L58.4477 64.5973L58.3882 64.7158L58.434 64.6816L58.3082 64.3306L57.0405 62.9401L57.116 63.0335L57.2556 62.9218L59.0564 61.2692L59.1868 61.2373L59.1708 61.3216L59.4019 61.219L59.292 61.08L59.6627 61.4515L60.1753 62.4682L60.2599 62.4842L60.2508 62.564L60.3309 62.5731L60.2348 62.6483L60.6215 63.3139L60.5254 63.3891L60.7015 63.7014L60.9304 63.5191L60.9258 63.6057L61.102 63.5396L60.9418 63.82L60.967 63.9431L60.5665 64.4856L60.8114 64.8959L61.1523 65.2196L61.523 64.9255L61.8937 64.3352L61.8433 64.3762L61.777 64.5813L62.127 64.4468L61.9783 64.6383L62.0538 64.7318C61.9097 64.9962 61.7358 65.2219 61.5276 65.4088C61.3193 65.598 61.134 65.8077 60.967 66.0425L61.4177 65.8374L61.8959 65.304L62.111 65.2857L62.3627 65.9787L62.5023 65.867L62.4222 66.2363L62.3307 66.2272L62.3604 66.3571L62.3147 66.3936L62.1842 66.4255L62.1751 66.5053L63.4198 66.6443L63.445 66.7674L62.2483 66.5987L62.5893 67.221L62.9645 67.5994L62.9096 67.7134L62.127 66.8381L62.0332 66.617L61.7518 66.8404L61.7312 67.009L61.8181 67.0136L61.9028 67.3145C61.8525 67.5037 61.8365 67.7043 61.8525 67.9163C61.8685 68.1283 61.8937 68.3198 61.928 68.493V68.4839ZM57.8185 62.6779L57.2533 62.8307L57.2831 62.9606L57.8185 62.6802V62.6779ZM57.4478 62.972L57.2831 62.9606L57.3494 63.1338L57.4387 63.0632L57.4501 62.972H57.4478ZM57.6126 62.9948L57.4364 63.0632L57.4272 63.143L57.6034 63.0768L57.6126 62.9971V62.9948ZM58.4798 63.8838L58.3287 63.6946L59.5552 62.6506L59.7245 62.589C59.7703 62.4568 59.752 62.336 59.6673 62.2311C59.5826 62.124 59.5209 62.0123 59.4797 61.8938C59.1891 61.9736 58.9145 62.1035 58.6514 62.2836C58.3905 62.4637 58.1205 62.6392 57.8482 62.8079L57.4615 63.1863L57.6469 63.4188L58.2944 64.032L58.4798 63.8861V63.8838ZM57.6583 62.6597L57.5279 62.6916L57.5187 62.7714L57.6423 62.744L57.6583 62.6597ZM57.9741 62.4819L57.7476 62.589L57.7384 62.6688L57.9741 62.4819ZM58.4134 61.9895L57.8643 62.3428L57.8528 62.434L58.4043 62.0693L58.4134 61.9895ZM58.4226 62.197L58.2029 62.2995L58.1937 62.3793L58.418 62.2836L58.4226 62.197ZM58.553 63.5989L58.3722 63.6604L58.3676 63.747L58.5438 63.6786L58.553 63.5989ZM58.8848 63.3367L58.6537 63.4393L58.6491 63.5259L58.8687 63.4233L58.8848 63.339V63.3367ZM60.6809 63.7858L60.6054 63.6923L60.3057 63.4074L60.0357 62.874L59.1982 63.4553L58.6743 64.3215L58.7406 64.4947L59.4522 64.9028L60.0975 64.4719L60.6809 63.7835V63.7858ZM59.6444 62.9583L58.7292 63.5305L58.72 63.6103L59.6353 63.0381L59.6444 62.9583ZM58.8733 61.9918L58.7932 61.9827L58.7772 62.067L58.8642 62.0716L58.8733 61.9918ZM58.9214 61.5838L58.791 61.6043L58.7864 61.6909L58.9099 61.6635L58.9191 61.5838H58.9214ZM59.0724 61.3832L58.942 61.4151L58.9328 61.4949L59.0609 61.4743L59.0724 61.3832ZM59.2188 61.5655L59.228 61.4857L59.0518 61.5518L58.9809 61.7502L59.2051 61.6544L59.2165 61.5632L59.2188 61.5655ZM59.1296 64.7911L59.0381 64.7819L59.1044 64.9552L59.1891 64.9711L59.1296 64.7933V64.7911ZM59.1525 63.4917L59.0724 63.4826L59.0632 63.5624L59.1479 63.5761L59.1525 63.4894V63.4917ZM59.228 61.8664L59.1365 61.8573L59.1319 61.9439L59.212 61.953L59.228 61.8687V61.8664ZM59.5254 65.0008L59.4499 64.9073L59.1731 64.7569L59.3836 65.1125L59.5232 65.0008H59.5254ZM59.292 61.6613L59.2051 61.6567L59.1959 61.7365L59.276 61.7456L59.292 61.6613ZM59.5369 61.3946L59.4614 61.3011L59.3744 61.2965L59.3561 61.4561L59.5209 61.4789L59.5369 61.3946ZM59.6078 65.3017L59.4316 65.3678L59.4225 65.4476L59.6032 65.386L59.6078 65.2994V65.3017ZM59.7863 62.7623L59.8115 62.5981L59.5872 62.6939L59.4271 62.9743L59.7817 62.8466L59.7863 62.76V62.7623ZM59.6673 65.1809L59.5575 65.0418L59.4614 65.117L59.4408 65.2857L59.6673 65.1786V65.1809ZM59.7954 62.0055L59.5392 61.6863H59.4522L59.6993 62.083L59.784 62.0967L59.7954 62.0055ZM59.7062 64.8526L59.53 64.9187L59.5209 64.9985L59.697 64.9301L59.7062 64.8503V64.8526ZM59.9259 62.6506L59.8915 62.6073L59.8115 62.5981L59.7954 62.6825L59.9259 62.6506ZM59.8961 64.9985L59.816 64.9894L59.8069 65.0692L59.887 65.0783L59.8961 64.9985ZM60.5482 64.1847L59.9968 64.5494L59.8366 64.8184L60.3812 64.4582L60.5459 64.1824L60.5482 64.1847ZM59.9739 66.5144L59.8824 66.5053L59.8778 66.5919L59.9579 66.601L59.9739 66.5167V66.5144ZM60.0654 62.5389L59.9854 62.5298L59.9693 62.6141L60.0609 62.6232L60.0654 62.5366V62.5389ZM60.2828 66.3411L60.0632 66.4437L60.054 66.5235L60.2737 66.4209L60.2828 66.3411ZM60.221 63.0199L60.1867 62.9766L60.102 62.9606L60.1272 63.0951L60.2142 63.0996L60.2233 63.0199H60.221ZM60.9784 65.4931L60.983 65.4065L60.157 65.9901L60.1478 66.0699C60.292 66.0585 60.4338 65.9969 60.5734 65.8852C60.713 65.7735 60.8457 65.6687 60.9693 65.5707L60.9784 65.4909V65.4931ZM60.3972 63.3322L60.3057 63.323L60.3011 63.4097L60.3812 63.4188L60.3972 63.3344V63.3322ZM60.6604 66.0448L60.5299 66.0767L60.3354 66.3024L60.6604 66.0448ZM60.6993 63.9955L60.475 64.0912L60.4636 64.1824L60.6993 63.9955ZM60.8434 63.7995L60.713 63.8314L60.7038 63.9112L60.8388 63.8861L60.8434 63.7995ZM60.8686 64.978L60.7976 64.8914L60.713 64.8754L60.7793 65.0486L60.864 65.0623L60.8686 64.9757V64.978ZM60.8365 66.3571H60.7496L60.7404 66.4323L60.8205 66.4414L60.8365 66.3571ZM61.317 65.1467L61.1409 65.2128L61.1248 65.2971L61.3056 65.2356L61.317 65.1444V65.1467ZM61.5367 66.4779L61.4612 66.3844L61.3811 66.3753L61.4315 66.6329L61.5916 66.7309L61.6809 66.6603L62.0355 66.1542L61.9051 65.5091L61.5459 65.7234L61.2392 66.1086L61.3582 66.1679L61.2827 66.0744L61.15 66.1793L61.2598 66.3183L61.5344 66.4802L61.5367 66.4779ZM61.4131 62.899L61.3331 62.8899L61.3239 62.9697L61.4086 62.9857L61.4131 62.899ZM61.4292 62.8147H61.3422L61.3331 62.8899L61.4292 62.8147ZM61.4154 64.3215L61.3811 64.2782C61.3399 63.4644 61.3628 62.6483 61.4452 61.8299C61.5276 61.0139 61.4932 60.191 61.3376 59.3635L61.4566 59.4228L61.4864 58.7959L61.5962 58.935L61.6168 59.1447L61.7015 59.1606C61.8593 59.9311 61.912 60.7107 61.8616 61.504C61.8113 62.2973 61.6946 63.086 61.5161 63.8792L61.3948 64.1186L61.4154 64.3283V64.3215ZM61.4383 62.7349L61.3537 62.719L61.3422 62.8101L61.4383 62.7349ZM61.4429 62.6483L61.3628 62.6392L61.3537 62.719L61.4429 62.6483ZM61.4589 62.564H61.372L61.3628 62.6392L61.4589 62.564ZM61.4612 66.7628L61.3765 66.7492L61.3651 66.8404L61.4521 66.8449L61.4612 66.7651V66.7628ZM61.4681 62.4865L61.3834 62.4728L61.372 62.564L61.4681 62.4887V62.4865ZM61.4726 62.3998L61.3926 62.3907L61.3834 62.4705L61.4726 62.3998ZM61.4841 63.7425L61.404 63.7334L61.388 63.8177L61.4749 63.8223L61.4841 63.7425ZM61.4864 59.5504L61.3948 59.5413L61.3903 59.6256L61.4704 59.6348L61.4864 59.5504ZM61.4864 62.3155L61.3994 62.3109L61.3903 62.3907L61.4864 62.3155ZM61.4909 63.6627L61.4063 63.6467L61.4017 63.7334L61.4909 63.6627ZM61.5253 61.6066L61.4452 61.5974L61.436 61.6772L61.5207 61.6909L61.5253 61.6043V61.6066ZM61.5481 58.9669L61.4681 58.9577L61.4521 59.0421L61.5436 59.0512L61.5481 58.9646V58.9669ZM61.5619 65.1717H61.4749L61.4658 65.247L61.5504 65.2629L61.5619 65.1717ZM61.6374 66.9862L61.5573 66.9771L61.5413 67.0615L61.6328 67.0706L61.6374 66.984V66.9862ZM61.658 67.8707L61.5779 67.8616L61.5619 67.9459H61.6488L61.658 67.8707ZM61.6511 67.1982L61.571 67.1891L61.5619 67.2689L61.6465 67.2849L61.6511 67.1982ZM61.6763 59.9881L61.5962 59.979L61.587 60.0588L61.6671 60.0679L61.6763 59.9881ZM61.6854 67.6222L61.6054 67.6131L61.5893 67.6975L61.6763 67.702L61.6854 67.6222ZM61.6854 68.0006L61.5939 67.9915L61.5893 68.0781L61.6694 68.0873L61.6854 68.0029V68.0006ZM61.6946 67.5424L61.6099 67.5288L61.6054 67.6154L61.6946 67.5447V67.5424ZM61.706 67.4513L61.6191 67.4467L61.6099 67.5265L61.706 67.4513ZM61.7106 67.0797L61.6305 67.0706L61.6145 67.1549H61.7015L61.7106 67.0797ZM61.706 68.1283L61.6259 68.1192L61.6168 68.1989L61.7015 68.2126L61.706 68.126V68.1283ZM61.7175 67.7499L61.6259 67.7408L61.6214 67.8274L61.7015 67.8365L61.7175 67.7522V67.7499ZM61.9143 65.3404L61.8342 65.3313L61.825 65.4111L61.9097 65.4248L61.9143 65.3381V65.3404ZM62.0607 66.2796L61.8799 66.3411L61.8753 66.4278L62.0515 66.3616L62.0607 66.2819V66.2796ZM62.0241 65.8579L61.9394 65.8442L61.9348 65.9308L62.0149 65.9399L62.0241 65.8602V65.8579ZM62.0447 65.6869L61.9646 65.6778L61.9486 65.7621L62.0355 65.7667L62.0447 65.6869ZM62.0744 65.4384L61.9875 65.4339L61.9783 65.5137L62.063 65.5273L62.0744 65.4362V65.4384ZM62.1156 66.1542L62.0287 66.1497L62.0195 66.2294L62.1042 66.2454L62.1156 66.1542ZM62.1454 65.9057H62.0584L62.0493 65.981L62.1339 65.9969L62.1454 65.9057ZM62.1682 65.6618L62.0882 65.6527L62.079 65.7325L62.1637 65.7485L62.1682 65.6618ZM62.7448 65.133L62.6739 65.0464L62.5778 65.1216L62.5687 65.2014L62.5984 64.9529L62.468 64.9848L62.4588 65.0646L62.4245 65.0213L62.4154 64.7227H62.3284L62.7037 62.9993L62.5732 60.2548L62.6922 60.3141L62.7037 60.2229L62.7883 60.2388L62.7746 60.0246L62.8844 60.1636L62.9645 60.5511L63.1636 60.6172C63.1842 60.8953 63.1636 61.1689 63.1041 61.4424C63.0446 61.716 63.0103 62.0055 62.9988 62.3155L63.0492 62.5731L62.7471 65.1375L62.7448 65.133ZM62.4542 64.3899L62.3742 64.3807L62.3582 64.4651H62.4451L62.4542 64.3899ZM62.4634 64.3101L62.3787 64.2941L62.3742 64.3807L62.4634 64.3101ZM62.5206 64.5631H62.4337L62.4245 64.6383L62.5046 64.6474L62.5206 64.5631ZM62.5298 64.4833L62.4451 64.4674L62.4337 64.5585L62.5298 64.4833ZM62.5732 64.0684L62.4931 64.0593L62.484 64.1391L62.5641 64.1482L62.5732 64.0684ZM62.5893 63.9841H62.5023L62.4931 64.0593L62.5893 63.9841ZM62.5984 63.9043L62.5137 63.8906L62.5023 63.9818L62.5984 63.9066V63.9043ZM62.603 63.8177L62.5229 63.8086L62.5137 63.8884L62.603 63.8177ZM62.6144 64.7819L62.5343 64.7728L62.5252 64.8526L62.6098 64.8663L62.6144 64.7797V64.7819ZM62.6304 64.6976L62.5435 64.693L62.5343 64.7728L62.6304 64.6976ZM62.6396 64.6178L62.5549 64.6041L62.5435 64.6953L62.6396 64.6201V64.6178ZM62.7265 60.3483L62.6922 60.3049L62.6076 60.2913L62.6373 60.4212L62.7174 60.4303L62.7265 60.3505V60.3483ZM62.6968 60.5967L62.6167 60.5876L62.6076 60.6674L62.6876 60.6765L62.6968 60.5967ZM62.7265 60.7267L62.6876 60.6765L62.6076 60.6674L62.6327 60.8019L62.7288 60.7267H62.7265ZM62.7037 64.4127L62.6167 64.4081L62.6076 64.4879L62.6876 64.497L62.7037 64.4127ZM62.7014 60.8908L62.6213 60.8817L62.6121 60.9614L62.6968 60.9751L62.7014 60.8885V60.8908ZM62.7311 61.0207L62.6968 60.9774L62.6121 60.9637L62.6373 61.0982L62.7334 61.023L62.7311 61.0207ZM62.7128 62.2334L62.6327 62.2243L62.6167 62.3087L62.7037 62.3132L62.7128 62.2334ZM62.7174 60.8064L62.6304 60.8019L62.6213 60.8817L62.7174 60.8064ZM62.7105 61.1894L62.6259 61.1757L62.6213 61.2601L62.7014 61.2692L62.7105 61.1894ZM62.7357 61.3125L62.7014 61.2692L62.6213 61.2601L62.6465 61.3832L62.7357 61.3125ZM62.7105 61.855L62.6304 61.8459L62.6213 61.9257L62.7059 61.9394L62.7105 61.8527V61.855ZM62.7197 61.0982H62.6327L62.6236 61.1734L62.7197 61.0982ZM62.7197 61.4766L62.6281 61.4675L62.6236 61.5541L62.7037 61.5632L62.7197 61.4789V61.4766ZM62.738 61.6043L62.7037 61.561L62.6236 61.5518L62.6487 61.6749L62.738 61.6043ZM62.7243 61.39L62.6442 61.3809L62.6281 61.4652L62.7243 61.39ZM62.7243 61.7684H62.6373L62.6281 61.8436L62.7243 61.7684ZM62.7174 62.1514L62.6327 62.1377L62.6281 62.2243L62.7174 62.1536V62.1514ZM62.7517 60.4759L62.7128 60.4258L62.6327 60.4166L62.6579 60.5511L62.7448 60.5557L62.754 60.4759H62.7517ZM62.7334 61.6886L62.6487 61.6727L62.6373 61.7638L62.7334 61.6886ZM62.7746 62.026L62.6945 62.0169L62.6785 62.1012L62.77 62.1103L62.7746 62.0237V62.026ZM62.7815 66.5167L62.7014 66.5075L62.6922 66.5873L62.7723 66.5964L62.7815 66.5167ZM62.7815 61.9462L62.7014 61.9371L62.6922 62.0169L62.7815 61.9462ZM62.802 63.8747L62.722 63.8656L62.7059 63.9499L62.7929 63.9545L62.802 63.8747ZM62.8112 63.7949L62.7311 63.7858L62.722 63.8656L62.8112 63.7949ZM62.8272 63.7106L62.7357 63.7014L62.7311 63.7858L62.8272 63.7106ZM62.8318 63.6239L62.7517 63.6148L62.7357 63.6992L62.8318 63.6239ZM62.8409 63.5442L62.7609 63.535L62.7517 63.6148L62.8409 63.5442ZM62.857 63.4598L62.7654 63.4507L62.7609 63.5373L62.857 63.4621V63.4598ZM62.8615 63.3732L62.7815 63.3641L62.7654 63.4484L62.8615 63.3732ZM62.8707 63.2934L62.7906 63.2843L62.7815 63.3641L62.8707 63.2934ZM62.9096 62.9652L62.8249 62.9515L62.8204 63.0381L62.9004 63.0472L62.9096 62.9674V62.9652ZM63.1018 66.6329L63.0171 66.6192L63.0057 66.7104L63.0926 66.715L63.1018 66.6352V66.6329ZM63.1384 61.0526L63.0515 61.0481L63.0423 61.1279L63.127 61.1415L63.1384 61.0504V61.0526ZM63.2665 66.6466L63.1796 66.642L63.1704 66.7218L63.2551 66.7355L63.2665 66.6443V66.6466ZM63.8431 66.7948C63.8798 66.0152 63.937 65.231 64.0193 64.4423C64.1017 63.6536 64.1315 62.8694 64.1086 62.0875H64.1955L64.2047 62.0123L64.2848 62.0214L64.3145 62.1514L64.4335 62.2106L64.4587 62.3337L64.5433 62.3497L64.5181 62.8922H64.6051C64.5616 63.4758 64.5044 64.0707 64.4312 64.6771C64.358 65.2857 64.2321 65.8602 64.0559 66.4027L63.9255 66.4346L63.8409 66.7993L63.8431 66.7948ZM64.136 64.3078L64.0559 64.2987L64.0399 64.383L64.1315 64.3921L64.136 64.3055V64.3078ZM64.1452 64.228L64.0651 64.2189L64.0559 64.2987L64.1452 64.228ZM64.1635 63.0153L64.0834 63.0062L64.0742 63.086L64.1543 63.0951L64.1635 63.0153ZM64.1635 63.3937L64.0788 63.3777L64.0742 63.4644L64.1543 63.4735L64.1635 63.3937ZM64.1726 62.6369L64.0811 62.6278L64.0765 62.7144L64.1566 62.7235L64.1726 62.6392V62.6369ZM64.1726 63.3025L64.0857 63.298L64.0765 63.3777L64.1726 63.3025ZM64.1772 62.5526L64.0971 62.5434L64.0811 62.6278L64.1772 62.5526ZM64.1772 62.931L64.0857 62.9218L64.0811 63.0085L64.1772 62.9332V62.931ZM64.1818 62.8443L64.1017 62.8352L64.0857 62.9196L64.1818 62.8443ZM64.1864 62.4728L64.1063 62.4637L64.0971 62.5434L64.1864 62.4728ZM64.1909 62.7668L64.1109 62.7577L64.1017 62.8375L64.1909 62.7668ZM64.2916 62.3201L64.207 62.3041L64.2024 62.3907L64.2825 62.3998L64.2916 62.3201ZM64.3031 62.2289H64.2161L64.207 62.3041L64.3031 62.2289ZM64.2962 62.6118L64.2161 62.6027L64.207 62.6825L64.287 62.6916L64.2962 62.6118ZM64.3031 63.2843L64.2184 63.2706L64.2138 63.3572L64.2939 63.3664L64.3031 63.2866V63.2843ZM64.3122 62.5275L64.2207 62.5184L64.2161 62.605L64.3122 62.5298V62.5275ZM64.3168 62.8215L64.2253 62.8124L64.2207 62.899L64.3008 62.9082L64.3168 62.8238V62.8215ZM64.3237 65.2128L64.2436 65.2037L64.2276 65.288L64.3145 65.2926L64.3237 65.2128ZM64.3328 65.133L64.2481 65.117L64.2436 65.2037L64.3328 65.133ZM64.4312 63.2524L64.3442 63.2478L64.3351 63.3276L64.4152 63.3367L64.4312 63.2524ZM64.4404 63.1726L64.3557 63.1566L64.3442 63.2478L64.4404 63.1726ZM64.5502 62.931L64.4701 62.9218L64.4609 63.0016L64.541 63.0107L64.5502 62.931Z" fill="#D80010"/>
<path d="M42.7215 63.266C41.8932 63.3572 41.0581 63.3982 40.2298 63.4803C39.6188 63.5418 39.3763 63.2797 39.4358 62.687C39.4541 62.5046 39.4289 62.3177 39.4266 62.1331C39.406 58.5041 39.3969 54.8751 39.3626 51.2461C39.3557 50.6032 39.2504 49.9627 39.3168 49.2469C39.5136 49.639 39.7126 50.0333 39.9163 50.4391C40.7972 50.0835 40.7766 49.2993 40.7766 48.5266C40.7766 46.5593 40.7766 44.5944 40.7766 42.5155H44.0143C43.0533 44.1955 44.0304 45.8048 44.0761 47.4324C44.1104 46.94 44.1448 46.4477 44.1791 45.9553C44.2958 45.9507 44.4102 45.9462 44.5269 45.9416C44.6253 46.7485 44.7259 47.5532 44.8564 48.6178C45.7487 47.478 46.4992 46.516 47.3527 45.4241C47.2887 44.934 47.2177 44.1772 47.0804 43.4318C46.9134 42.5155 47.3138 42.1986 48.1787 42.2761C48.3503 42.2921 48.5265 42.2442 48.7782 42.2169C48.7004 41.9912 48.673 41.8157 48.5883 41.6766C48.3549 41.2868 48.0712 40.9244 47.8584 40.5254C47.5953 40.0353 47.3298 39.0688 47.1559 39.0893C46.0851 39.2124 44.9159 38.777 43.9343 39.6547C43.3897 40.1402 42.6483 40.4069 41.836 40.8651C42.2182 38.6334 41.5454 36.885 40.6302 35.1617C40.2938 34.5303 40.1062 33.7758 40.0421 33.06C40.0032 32.6155 40.1977 32.0137 40.5112 31.706C41.01 31.2181 41.6141 31.127 42.2525 31.7561C42.5705 32.0684 43.2089 32.0752 43.7123 32.1687C43.8198 32.1892 44.0372 32.0091 44.0761 31.8815C44.1082 31.7766 43.9823 31.5281 43.8748 31.4917C43.1586 31.2409 43.4423 30.8238 43.6826 30.2562C44.0601 30.7508 45.0806 30.4363 44.8655 31.5737C46.0119 31.2774 46.7944 30.6027 47.1559 29.4333C47.3413 28.836 47.4923 28.1772 48.3824 28.1932C48.2703 25.5603 47.982 23.0939 45.552 21.4253C43.9434 20.322 42.0374 20.1829 40.3876 21.1837C40.0719 21.3751 39.525 21.3911 39.1658 21.2612C38.5022 21.0218 38.0377 20.9192 37.4497 21.5279C36.896 22.1046 36.1226 22.5012 35.3904 22.8705C34.9053 23.1144 34.8023 23.4267 34.8412 23.8963C34.9373 25.0292 35.0082 26.1667 35.1158 27.2973C35.1524 27.6689 35.1364 28.1157 35.7771 28.061C35.8709 28.0519 36.0471 28.6126 36.1317 28.9226C36.2416 29.3307 36.2988 29.7547 36.3788 30.165C37.4337 30.0442 37.7792 29.1005 37.6007 27.0284C37.6533 27.0192 37.738 26.9873 37.7517 27.0056C38.1933 27.6461 38.7059 28.2525 39.0399 28.9454C39.374 29.6339 39.0811 30.3314 38.5869 30.858C37.9897 31.4962 37.2552 32.0114 36.6946 32.6747C36.356 33.0737 36.2004 33.639 36.0196 34.1519C35.4293 35.8205 34.8504 37.4937 34.3058 39.176C34.1777 39.5726 34.2326 40.0239 34.1502 40.4388C33.9214 41.6082 33.6651 42.7753 33.4203 43.9425C33.3105 43.9721 33.2029 44.004 33.0931 44.0336C32.7224 43.4524 32.3494 42.8711 31.9788 42.2898C31.9032 42.2898 31.8277 42.2898 31.7499 42.2921C31.7957 42.7845 31.6516 43.482 31.9216 43.7282C32.5302 44.2821 32.37 44.8839 32.3746 45.5108C32.3952 48.7386 32.2488 51.9801 32.5119 55.1896C32.6652 57.0794 33.4729 58.9167 33.9855 60.7768C34.0976 61.1871 34.196 61.6019 34.3012 62.0145C34.228 62.1148 34.1548 62.2151 34.0816 62.3154C32.8734 61.8436 31.5944 61.4948 30.4709 60.8679C27.8716 59.4182 25.2883 57.8886 23.2793 55.6683C15.5248 47.0996 15.8383 32.8959 23.1946 24.1904C23.6065 23.7025 24.0733 23.2557 24.5515 22.8318C28.7868 19.0842 34.5872 17.2446 40.1932 17.1535C45.7076 17.0646 51.151 19.0933 55.3635 22.6198C59.1709 25.8088 61.6764 30.3063 62.7496 35.1116H66.1291C65.2345 30.1148 62.9029 25.6903 59.5119 21.8835C55.0157 16.8343 48.2039 14.0442 41.4882 13.839C29.5625 13.472 18.6252 21.6532 15.2891 33.0121C12.5571 42.3149 15.1335 52.9101 22.3366 59.5367C28.5763 65.2788 37.5664 67.3897 45.8082 65.6595C56.0751 63.5031 63.8822 54.9389 65.9735 44.9614H62.9143C61.0335 54.5856 53.1852 62.1126 42.7215 63.266ZM45.7602 40.3408C45.9341 40.1744 46.4809 40.1516 46.6777 40.302C47.1468 40.6554 47.506 41.15 47.911 41.5877C47.8698 41.6584 47.8264 41.7313 47.7852 41.802C47.2086 41.802 46.6274 41.843 46.0554 41.786C45.767 41.7564 45.4948 41.5535 45.2179 41.4281C45.3895 41.0566 45.4856 40.6075 45.7625 40.3431L45.7602 40.3408Z" fill="#AF2E38"/>
<path d="M44.0718 47.4326L44.0215 48.1507C44.065 47.9113 44.0787 47.6697 44.0718 47.4326Z" fill="#AF2E38"/>
<path d="M46.8453 51.7909C46.422 51.9504 45.8385 52.2126 45.8408 52.4679C45.8546 54.4214 45.9827 56.375 46.0742 58.3263C46.2618 58.3491 46.4518 58.3741 46.6394 58.3969C47.1153 56.2656 46.6028 54.043 46.8453 51.7886V51.7909Z" fill="#AF2E38"/>
<path d="M40.5526 75.7851C21.2819 75.7851 5.66084 59.9744 5.66084 40.4684C5.66084 20.9625 21.2842 5.15401 40.5526 5.15401C58.0225 5.15401 72.4926 18.1496 75.0439 35.1116H80C77.5814 15.3253 60.663 0 40.1499 0C17.9756 0 0 17.908 0 39.9989C0 62.0898 17.9756 79.9977 40.1499 79.9977C60.6378 79.9977 77.5403 64.7089 79.9931 44.9591H75.1652C72.9846 62.3428 58.3199 75.7829 40.5526 75.7829V75.7851Z" fill="#7F121F"/>
</svg>
